<svg xmlns="http://www.w3.org/2000/svg" width="1920" height="256" viewBox="0 0 1920 256">
    <defs>
        <g id="pipe-joint" fill="#B0C4DE">
            <rect x="108" y="5" rx="4" width="94" height="76" stroke="#778899"
                strokeWidth="5" />
            <rect x="94" y="0" rx="4" width="16" height="86" fill="#778899" />
            <rect x="200" y="0" rx="4" width="16" height="86" fill="#778899" />
        </g>
    </defs>
    <defs>
        <g id="pipe-bend">
            <path
                d="M 0.265 14.524 C 8.652 13.344 18.645 16.856 15.704 0 L 90.941 0.34 C 91.764 64.846 65.977 86.122 0 89.733 L 0.265 14.524 Z"
                stroke="#778899"
                ry="4"
                strokeWidth="5"
                transform="matrix(0.000001, -0.999996960163, 1.000002980232, 0.000001, -0.00000151566, -0.000017145906)" />
            <rect x="-8" y="-94" rx="4" width="16" height="86" fill="#778899" transform="rotate(90)" />
        </g>
        <g id="pipe-bend2">
            <g transform="matrix(-0.000001, 0.999997, -1.000003, 0, 208.000004, 192.000004)"
                style="transformOrigin: '44.8667px -45.4799px'">
                <path
                    d="M 0.265 14.524 C 8.652 13.344 18.645 16.856 15.704 0 L 90.941 0.34 C 91.764 64.846 65.977 86.122 0 89.733 L 0.265 14.524 Z"
                    stroke="#778899" ry="4" strokeWidth="5"
                    transform="matrix(0.000001, -0.999996960163, 1.000002980232, 0.000001, -0.00000151566, -0.000017145906)"></path>
                <rect x="-8" y="-94" rx="4" width="16" height="86" fill="#778899" />
            </g>
        </g>
        <g id="pipe-bend3">
            <g transform="matrix(0.000001, -0.999997, 1.000003, 0, 208.00002, 192.000019)"
                style="transform-origin: 44.8667px -45.4799px;">
                <path
                    d="M 0.265 14.524 C 8.652 13.344 18.645 16.856 15.704 0 L 90.941 0.34 C 91.764 64.846 65.977 86.122 0 89.733 L 0.265 14.524 Z"
                    stroke="#778899" ry="4" strokewidth="5"
                    transform="matrix(0.000001, -0.999996960163, 1.000002980232, 0.000001, -0.00000151566, -0.000017145906)"></path>
            </g>
        </g>
    </defs>
    <g>
        <use href="#pipe-bend" x="410" y="96" className="fill-blue-500 hover:fill-red-500" />
        <use href="#pipe-bend2" x="201" y="-96" />
        <use href="#pipe-joint" x="200" />
        <use href="#pipe-joint" x="200" y="104" />
        <use href="#pipe-bend3" x="0" y="8" />
    </g>
</svg>