<svg width="100%" height="100%" viewBox="0 0 1220 400"
    class="relative flex-grow h-full max-h-full overflow-visible z-[0]"
    xmlns="http://www.w3.org/2000/svg" xmlns:xlink="http://www.w3.org/1999/xlink"
    xmlns:bx="https://boxy-svg.com">
    <defs>
        <linearGradient id="gradient-1" x1="0%" y1="0%" x2="0%" y2="100%">
            <stop offset="0" stop-color="rgba(0, 20, 50, .6)"></stop>
            <stop offset="1" stop-color="rgba(0, 20, 50, 0)"></stop>
        </linearGradient>
        <linearGradient id="gradient-2" x1="0%" y1="100%" x2="0%" y2="0%">
            <stop offset="0" stop-color="rgba(0, 20, 50, .6)"></stop>
            <stop offset="1" stop-color="rgba(0, 20, 50, 0)"></stop>
        </linearGradient>
        <linearGradient id="gradient-3" x1="0%" y1="0%" x2="0%" y2="100%">
            <stop offset="0" stop-color="rgba(0, 20, 50, .6)"></stop>
            <stop offset="1" stop-color="rgba(0, 20, 50, 0)"></stop>
        </linearGradient>
        <linearGradient id="gradient-4" x1="0%" y1="0%" x2="0%" y2="100%">
            <stop offset="0" stop-color="rgba(0, 20, 50, .6)"></stop>
            <stop offset="1" stop-color="rgba(0, 20, 50, 0)"></stop>
        </linearGradient>
        <linearGradient id="gradient-7" x1="0%" y1="0%" x2="0%" y2="100%">
            <stop offset="0" stop-color="rgba(0, 20, 50, .6)"></stop>
            <stop offset="1" stop-color="rgba(0, 20, 50, 0)"></stop>
        </linearGradient>
        <linearGradient id="gradient-8" x1="0%" y1="0%" x2="0%" y2="100%">
            <stop offset="0" stop-color="rgba(0, 20, 50, .6)"></stop>
            <stop offset="1" stop-color="rgba(0, 20, 50, 0)"></stop>
        </linearGradient>
        <linearGradient id="gradient-9" x1="0%" y1="0%" x2="0%" y2="100%">
            <stop offset="0" stop-color="rgba(0, 20, 50, .6)"></stop>
            <stop offset="1" stop-color="rgba(0, 20, 50, 0)"></stop>
        </linearGradient>
        <linearGradient id="gradient-10" x1="0%" y1="0%" x2="0%" y2="100%">
            <stop offset="0" stop-color="rgba(0, 20, 50, .6)"></stop>
            <stop offset="1" stop-color="rgba(0, 20, 50, 0)"></stop>
        </linearGradient>
        <linearGradient id="gradient-5" x1="0%" y1="0%" x2="0%" y2="100%">
            <stop offset="0" stop-color="rgba(0, 20, 50, .6)"></stop>
            <stop offset="1" stop-color="rgba(0, 20, 50, 0)"></stop>
        </linearGradient>
        <linearGradient id="gradient-6" x1="0%" y1="0%" x2="0%" y2="100%">
            <stop offset="0" stop-color="rgba(0, 20, 50, .6)"></stop>
            <stop offset="1" stop-color="rgba(0, 20, 50, 0)"></stop>
        </linearGradient>
        <linearGradient id="gradient-11" x1="0%" y1="0%" x2="0%" y2="100%">
            <stop offset="0" stop-color="rgba(0, 20, 50, .6)"></stop>
            <stop offset="1" stop-color="rgba(0, 20, 50, 0)"></stop>
        </linearGradient>
        <linearGradient id="gradient-12" x1="0%" y1="0%" x2="0%" y2="100%">
            <stop offset="0" stop-color="rgba(0, 20, 50, .6)"></stop>
            <stop offset="1" stop-color="rgba(0, 20, 50, 0)"></stop>
        </linearGradient>
        <linearGradient id="gradient-13" x1="0%" y1="0%" x2="0%" y2="100%">
            <stop offset="0" stop-color="rgba(0, 20, 50, .6)"></stop>
            <stop offset="1" stop-color="rgba(0, 20, 50, 0)"></stop>
        </linearGradient>
        <linearGradient id="gradient-14" x1="0%" y1="0%" x2="0%" y2="100%">
            <stop offset="0" stop-color="rgba(0, 20, 50, .6)"></stop>
            <stop offset="1" stop-color="rgba(0, 20, 50, 0)"></stop>
        </linearGradient>
        <linearGradient id="gradient-15" x1="0%" y1="0%" x2="0%" y2="100%">
            <stop offset="0" stop-color="rgba(0, 20, 50, .6)"></stop>
            <stop offset="1" stop-color="rgba(0, 20, 50, 0)"></stop>
        </linearGradient>
        <linearGradient id="gradient-16" x1="0%" y1="0%" x2="0%" y2="100%">
            <stop offset="0" stop-color="rgba(0, 20, 50, .6)"></stop>
            <stop offset="1" stop-color="rgba(0, 20, 50, 0)"></stop>
        </linearGradient>
        <linearGradient id="gradient-17" x1="0%" y1="0%" x2="0%" y2="100%">
            <stop offset="0" stop-color="rgba(0, 20, 50, .6)"></stop>
            <stop offset="1" stop-color="rgba(0, 20, 50, 0)"></stop>
        </linearGradient>
        <linearGradient id="gradient-18" x1="0%" y1="0%" x2="0%" y2="100%">
            <stop offset="0" stop-color="rgba(0, 20, 50, .6)"></stop>
            <stop offset="1" stop-color="rgba(0, 20, 50, 0)"></stop>
        </linearGradient>
        <bx:export>
            <bx:file format="png"></bx:file>
        </bx:export>
    </defs>
    <g>
        <defs>
            <linearGradient id="dash-gradient" x1="0%" y1="0%" x2="0%" y2="100%">
                <stop offset="0" stop-color="rgba(0, 20, 50, .6)"></stop>
                <stop offset="1" stop-color="rgba(0, 20, 50, 0)"></stop>
            </linearGradient>
        </defs>
        <defs>
            <linearGradient id="dash-gradient-revers" x1="0%" y1="100%" x2="0%" y2="0%">
                <stop offset="0" stop-color="rgba(0, 20, 50, .6)"></stop>
                <stop offset="1" stop-color="rgba(0, 20, 50, 0)"></stop>
            </linearGradient>
        </defs>
    </g>
    <g transform="matrix(0.988985, 0, 0, 0.99, -46.291737, 249.994995)" style="">
        <g transform="matrix(4.040404, 0, 0, 4.040404, 0, -100)"
            style="transform-origin: -16.0602px 49.5px;">
            <g>
                <g transform="translate(0, 2.5)" role="graphics-symbol">
                    <rect width="25px" height="25px" fill="rgb(45, 91, 157)" role="graphics-symbol"
                        style="stroke: rgb(9, 20, 40);" rx="0.272" ry="0.272"></rect>
                </g>
                <g transform="translate(25, 2.5)" role="graphics-symbol">
                    <rect width="100px" height="25px" fill="rgb(45, 91, 157)" role="graphics-symbol"
                        style="stroke: rgb(9, 20, 40);"></rect>
                </g>
                <g transform="translate(125, 2.5)" role="graphics-symbol">
                    <rect width="50px" height="25px" fill="rgb(45, 91, 157)" role="graphics-symbol"
                        style="stroke: rgb(9, 20, 40);"></rect>
                </g>
                <g transform="translate(150, 36.8)" role="graphics-symbol">
                    <rect width="25px" height="25px" fill="rgb(45, 91, 157)" role="graphics-symbol"
                        style="stroke: rgb(9, 20, 40);"></rect>
                </g>
                <g transform="translate(150, 71.5)" role="graphics-symbol">
                    <rect width="75px" height="25px" fill="rgb(45, 91, 157)" role="graphics-symbol"
                        style="stroke: rgb(9, 20, 40);"></rect>
                </g>
                <g transform="translate(225, 71.5)" role="graphics-symbol">
                    <rect width="75px" height="25px" fill="rgb(45, 91, 157)" role="graphics-symbol"
                        style="stroke: rgb(9, 20, 40);"></rect>
                </g>
            </g>
            <g name="bendes">
                <g>
                    <path transform="translate(180, -2.5) rotate(270, 15, 20) scale(0.33)"
                        d="M 0.265 14.524 C 9.366 14.524 15.704 11.589 15.704 0 L 90.941 0.34 C 90.941 74.715 50.162 89.733 0 89.733 L 0.265 14.524 Z"
                        style="fill: rgb(45, 91, 157); stroke: rgb(9, 20, 40); stroke-width: 3.0303px;"></path>
                </g>
                <g>
                    <path transform="translate(174.5, 33) rotate(0, 15, 20) scale(0.33)"
                        d="M 0.265 14.524 C 9.366 14.524 15.704 11.589 15.704 0 L 90.941 0.34 C 90.941 74.715 50.162 89.733 0 89.733 L 0.265 14.524 Z"
                        style="fill: rgb(45, 91, 157); stroke-width: 3.0303px; stroke: rgb(9, 20, 40);"></path>
                </g>
                <g>
                    <path transform="translate(123, 26.5) rotate(180, 15, 20) scale(0.33)"
                        d="M 0.265 14.524 C 9.366 14.524 15.704 11.589 15.704 0 L 90.941 0.34 C 90.941 74.715 50.162 89.733 0 89.733 L 0.265 14.524 Z"
                        style="stroke-width: 3.0303px; stroke: rgb(9, 20, 40); fill: rgb(45, 91, 157);"></path>
                </g>
                <g>
                    <path transform="translate(117.5, 61.5) rotate(90, 15, 20) scale(0.33)"
                        d="M 0.265 14.524 C 9.366 14.524 15.704 11.589 15.704 0 L 90.941 0.34 C 90.941 74.715 50.162 89.733 0 89.733 L 0.265 14.524 Z"
                        style="fill: rgb(45, 91, 157); stroke-width: 3.0303px; stroke: rgb(9, 20, 40);"></path>
                </g>
            </g>
            <g name="dashes">
                <g>
                    <rect x="0" y="0" width="20" height="30" rx="2.5" ry="2.5" cy="2.5" cx="2.5"
                        style="fill: rgb(45, 91, 157); stroke: rgb(9, 20, 40);"></rect>
                    <rect x="0" y="0" width="20" height="10" rx="2.5" ry="2.5" cy="2.5" cx="2.5"
                        fill="url(#dash-gradient)" style=""></rect>
                    <rect x="0" y="20" width="20" height="10" rx="2.5" ry="2.5" cy="2.5" cx="2.5"
                        fill="url(#dash-gradient-revers)" style=""></rect>
                </g>
                <g>
                    <rect x="22.5" y="0" width="10" height="30" rx="2.5" ry="2.5" cy="2.5" cx="2.5"
                        style="stroke: rgb(9, 20, 40); fill: rgb(45, 91, 157);"></rect>
                    <rect x="22.5" y="0" width="10" height="10" rx="2.5" ry="2.5" cy="2.5" cx="2.5"
                        fill="url(#dash-gradient)" style=""></rect>
                    <rect x="22.5" y="20" width="10" height="10" rx="2.5" ry="2.5" cy="2.5" cx="2.5"
                        fill="url(#dash-gradient-revers)" style=""></rect>
                </g>
                <g>
                    <rect x="122.5" y="0" width="10" height="30" rx="2.5" ry="2.5" cy="2.5" cx="2.5"
                        style="stroke: rgb(9, 20, 40); fill: rgb(45, 91, 157);"></rect>
                    <rect x="122.5" y="0" width="10" height="10" rx="2.5" ry="2.5" cy="2.5" cx="2.5"
                        fill="url(#dash-gradient)" style=""></rect>
                    <rect x="122.5" y="20" width="10" height="10" rx="2.5" ry="2.5" cy="2.5"
                        cx="2.5" fill="url(#dash-gradient-revers)" style=""></rect>
                </g>
                <g>
                    <rect x="172.5" y="0" width="5" height="30" rx="2.5" ry="2.5" cy="2.5" cx="2.5"
                        class="fill-[#2d5b9d] stroke-[1.5px] stroke-[#091428]"
                        style="stroke: rgb(9, 20, 40); fill: rgb(45, 91, 157);"></rect>
                    <rect x="172.5" y="0" width="5" height="10" rx="2.5" ry="2.5" cy="2.5" cx="2.5"
                        fill="url(#dash-gradient)" style=""></rect>
                    <rect x="172.5" y="20" width="5" height="10" rx="2.5" ry="2.5" cy="2.5" cx="2.5"
                        fill="url(#dash-gradient-revers)" style=""></rect>
                </g>
                <g>
                    <rect x="177.5" y="29.5" width="30" height="5" rx="2.5" ry="2.5" cy="2.5"
                        cx="2.5" class="fill-[#2d5b9d] stroke-[1.5px] stroke-[#091428]"
                        style="stroke: rgb(9, 20, 40); fill: rgb(45, 91, 157);"></rect>
                    <rect x="177.5" y="29.5" width="30" height="1.6666666666666667" rx="2.5"
                        ry="2.5" cy="2.5" cx="2.5" fill="url(#dash-gradient)" style=""></rect>
                    <rect x="177.5" y="32.048" width="30" height="2.452" rx="2.5" ry="2.5" cy="2.5"
                        cx="2.5" fill="url(#dash-gradient-revers)" style=""></rect>
                </g>
                <g>
                    <rect x="172.5" y="34.5" width="5" height="30" rx="2.5" ry="2.5" cy="2.5"
                        cx="2.5" class="fill-[#2d5b9d] stroke-[1.5px] stroke-[#091428]"
                        style="stroke: rgb(9, 20, 40); fill: rgb(45, 91, 157);"></rect>
                    <rect x="172.5" y="34.5" width="5" height="10" rx="2.5" ry="2.5" cy="2.5"
                        cx="2.5" fill="url(#dash-gradient)" style=""></rect>
                    <rect x="172.5" y="54.5" width="5" height="10" rx="2.5" ry="2.5" cy="2.5"
                        cx="2.5" fill="url(#dash-gradient-revers)" style=""></rect>
                </g>
                <g>
                    <rect x="147.5" y="34.5" width="5" height="30" rx="2.5" ry="2.5" cy="2.5"
                        cx="2.5" class="fill-[#2d5b9d] stroke-[1.5px] stroke-[#091428]"
                        style="stroke: rgb(9, 20, 40); fill: rgb(45, 91, 157);"></rect>
                    <rect x="147.5" y="34.5" width="5" height="10" rx="2.5" ry="2.5" cy="2.5"
                        cx="2.5" fill="url(#dash-gradient)" style=""></rect>
                    <rect x="147.5" y="54.5" width="5" height="10" rx="2.5" ry="2.5" cy="2.5"
                        cx="2.5" fill="url(#dash-gradient-revers)" style=""></rect>
                </g>
                <g>
                    <rect x="120.5" y="64.5" width="30" height="5" rx="2.5" ry="2.5" cy="2.5"
                        cx="2.5" class="fill-[#2d5b9d] stroke-[1.5px] stroke-[#091428]"
                        style="stroke: rgb(9, 20, 40); fill: rgb(45, 91, 157);"></rect>
                    <rect x="120.5" y="64.5" width="30" height="1.6666666666666667" rx="2.5"
                        ry="2.5" cy="2.5" cx="2.5" fill="url(#dash-gradient)" style=""></rect>
                    <rect x="120.5" y="67.458" width="30" height="2.042" rx="2.5" ry="2.5" cy="2.5"
                        cx="2.5" fill="url(#dash-gradient-revers)" style=""></rect>
                </g>
                <g>
                    <rect x="147.5" y="69" width="5" height="30" rx="2.5" ry="2.5" cy="2.5" cx="2.5"
                        class="fill-[#2d5b9d] stroke-[1.5px] stroke-[#091428]"
                        style="stroke: rgb(9, 20, 40); fill: rgb(45, 91, 157);"></rect>
                    <rect x="147.5" y="69" width="5" height="10" rx="2.5" ry="2.5" cy="2.5" cx="2.5"
                        fill="url(#dash-gradient)" style=""></rect>
                    <rect x="147.5" y="89" width="5" height="10" rx="2.5" ry="2.5" cy="2.5" cx="2.5"
                        fill="url(#dash-gradient-revers)" style=""></rect>
                </g>
                <g>
                    <rect x="220" y="69" width="7.5" height="30" rx="2.5" ry="2.5" cy="2.5" cx="2.5"
                        class="fill-[#2d5b9d] stroke-[1.5px] stroke-[#091428]"
                        style="stroke: rgb(9, 20, 40); fill: rgb(45, 91, 157);"></rect>
                    <rect x="220" y="69" width="7.5" height="10" rx="2.5" ry="2.5" cy="2.5" cx="2.5"
                        fill="url(#dash-gradient)" style=""></rect>
                    <rect x="220" y="89" width="7.5" height="10" rx="2.5" ry="2.5" cy="2.5" cx="2.5"
                        fill="url(#dash-gradient-revers)" style=""></rect>
                </g>
                <g transform="matrix(1, 0, 0, 1, 76.812027, 0)">
                    <rect x="220" y="69" width="7.5" height="30" rx="2.5" ry="2.5" cy="2.5" cx="2.5"
                        class="fill-[#2d5b9d] stroke-[1.5px] stroke-[#091428]"
                        style="stroke: rgb(9, 20, 40); fill: rgb(45, 91, 157);"></rect>
                    <rect x="220" y="69" width="7.5" height="10" rx="2.5" ry="2.5" cy="2.5" cx="2.5"
                        fill="url(#gradient-1)" style=""></rect>
                    <rect x="220" y="89" width="7.5" height="10" rx="2.5" ry="2.5" cy="2.5" cx="2.5"
                        fill="url(#gradient-2)" style=""></rect>
                </g>
            </g>
            <g transform="translate(243, 67.5)">
                <rect x="0" y="0" width="40" height="8" fill="#7f8ebd" rx="0.7" ry="0.7"
                    style="stroke: rgb(9, 20, 40);"></rect>
                <rect x="4" y="-16" width="32" height="16" rx="0.7" ry="0.7"
                    style="fill: rgb(45, 91, 157); stroke: rgb(9, 20, 40);"></rect>
                <rect x="12" y="-24" width="16" height="8" fill="#7f8ebd"
                    style="stroke: rgb(9, 20, 40); fill: rgb(127, 142, 189);"></rect>
                <rect x="8" y="-28" width="24" height="4" rx="0.7" ry="0.7"
                    style="fill: rgb(45, 91, 157); stroke: rgb(9, 20, 40);"></rect>
                <rect x="16" y="-44" width="8" height="16"
                    style="stroke: rgb(9, 20, 40); fill: rgb(127, 142, 189);"></rect>
                <rect x="-4" y="-44" width="48" height="8" rx="1.4" ry="1.4"
                    style="fill: rgb(45, 91, 157); stroke: rgb(9, 20, 40);"></rect>
                <rect x="12" y="-46" width="16" height="12" rx="1.4" ry="1.4"
                    style="fill: rgb(45, 91, 157); stroke: rgb(9, 20, 40);"></rect>
                <rect cy="2.5" cx="2.5" fill="url(#gradient-3)" style="stroke-miterlimit: 1;"
                    x="3.817" y="-16.349" width="32.647" height="6.664"></rect>
                <rect cy="2.5" cx="2.5" fill="url(#gradient-4)" style="stroke-miterlimit: 1;"
                    x="3.925" y="0.254" width="32.043" height="5.712"
                    transform="matrix(1, 0, 0, -1, 0, 0)"></rect>
                <rect cy="2.5" cx="2.5" fill="url(#gradient-7)"
                    style="stroke-miterlimit: 1; transform-box: fill-box; transform-origin: 50% 50%;"
                    x="1.718" y="-20.178" width="7.392" height="2.727"
                    transform="matrix(0, 1, -1, 0, 20.731345, -1.308093)"></rect>
                <rect cy="2.5" cx="2.5" fill="url(#gradient-8)"
                    style="stroke-miterlimit: 1; transform-origin: 5.218px -18.814px;" x="1.656"
                    y="-20.178" width="7.124" height="2.727"
                    transform="matrix(0, 1, 1, 0, 8.593864, -1.202023)"></rect>
                <rect cy="2.5" cx="2.5" fill="url(#gradient-9)"
                    style="stroke-miterlimit: 1; transform-origin: 3.912px -18.814px;" x="1.241"
                    y="-20.178" width="5.339" height="2.727"
                    transform="matrix(0, 1, 1, 0, 13.745773, -12.173405)"></rect>
                <rect cy="2.5" cx="2.5" fill="url(#gradient-10)"
                    style="stroke-miterlimit: 1; transform-box: fill-box; transform-origin: 39.36% 23.5624%;"
                    x="-1.241" y="20.178" width="5.339" height="2.727"
                    transform="matrix(0, 1, -1, 0, 22.0747, -52.470754)"></rect>
                <rect cy="2.5" cx="2.5" fill="url(#gradient-5)"
                    style="stroke-miterlimit: 1; transform-origin: 5.414px -49.276px;" x="1.718"
                    y="-52.849" width="7.392" height="7.142"
                    transform="matrix(0, 1, -1, 0, 30.701478, 53.138523)"></rect>
                <rect cy="2.5" cx="2.5" fill="url(#gradient-6)"
                    style="stroke-miterlimit: 1; transform-origin: 5.218px -49.276px;" x="1.656"
                    y="-52.849" width="7.124" height="7.142"
                    transform="matrix(0, 1, 1, 0, -1.405454, 53.245167)"></rect>
                <rect cy="2.5" cx="2.5" fill="url(#gradient-11)" style="stroke-miterlimit: 1;"
                    x="8.272" y="-27.664" width="23.738" height="1.346"></rect>
                <rect cy="2.5" cx="2.5" fill="url(#gradient-12)" style="stroke-miterlimit: 1;"
                    x="8.35" y="24.414" width="23.298" height="1.153"
                    transform="matrix(1, 0, 0, -1, 0, 0)"></rect>
                <rect cy="2.5" cx="2.5" fill="url(#gradient-13)" style="stroke-miterlimit: 1;"
                    x="28.405" y="-43.954" width="15.504" height="3.36"></rect>
                <rect cy="2.5" cx="2.5" fill="url(#gradient-14)" style="stroke-miterlimit: 1;"
                    x="28.456" y="35.839" width="15.217" height="2.88"
                    transform="matrix(1, 0, 0, -1, 0, 0)"></rect>
                <rect cy="2.5" cx="2.5" fill="url(#gradient-15)" style="stroke-miterlimit: 1;"
                    x="-3.736" y="-44.403" width="15.504" height="3.36"></rect>
                <rect cy="2.5" cx="2.5" fill="url(#gradient-16)" style="stroke-miterlimit: 1;"
                    x="-3.685" y="36.288" width="15.217" height="2.88"
                    transform="matrix(1, 0, 0, -1, 0, 0)"></rect>
                <rect cy="2.5" cx="2.5" fill="url(#gradient-17)"
                    style="stroke-miterlimit: 1; transform-box: fill-box; transform-origin: 50% 50%;"
                    x="10.158" y="-83.932" width="12.239" height="6.431"
                    transform="matrix(0, 1, -1, 0, 8.150772, 40.660397)"></rect>
                <rect cy="2.5" cx="2.5" fill="url(#gradient-18)"
                    style="stroke-miterlimit: 1; transform-box: fill-box; transform-origin: 50% 50%;"
                    x="-10.08" y="-68.4" width="11.873" height="5.513"
                    transform="matrix(0, 1, 1, 0, 19.010954, 25.563619)"></rect>
            </g>
            <g name="lines">
                <g transform="translate(60 15)">
                    <rect x="0" y="0" width="30" height="1" fill="#172b4e" rx="1" ry="1"></rect>
                    <rect x="10" y="3" width="14" height="1" fill="#172b4e" rx="1" ry="1"></rect>
                    <rect x="-10" y="-3" width="30" height="1" fill="#172b4e" rx="1" ry="1"></rect>
                    <rect x="50" y="-8" width="5" height="1" fill="#172b4e" rx="1" ry="1"></rect>
                </g>
                <g transform="translate(20 -50)">
                    <rect x="5" y="5" width="6" height="2" fill="#172b4e" rx="2" ry="2"
                        transform="rotate(220 0 60) translate (0 50)"></rect>
                    <rect x="6" y="11" width="10" height="2" fill="#172b4e" rx="2" ry="2"
                        transform="rotate(220 0 60) translate (0 40)"></rect>
                </g>
                <g transform="translate(145 20)">
                    <rect x="0" y="0" width="16" height="1" rx="1" ry="1" fill="#172b4e"></rect>
                </g>
                <g transform="translate(185 53)">
                    <rect x="0" y="0" width="15" height="1" fill="#172b4e" rx="1" ry="1"
                        transform="rotate(-45 0 0)"></rect>
                    <rect x="2" y="3" width="10" height="1" fill="#172b4e" rx="1" ry="1"
                        transform="rotate(-45 0 0)"></rect>
                </g>
                <g transform="translate(145 50)">
                    <rect x="0" y="0" width="14" height="1" fill="#172b4e" rx="1" ry="1"
                        transform="rotate(140 0 0)"></rect>
                    <rect x="3" y="3" width="10" height="1" fill="#172b4e" rx="1" ry="1"
                        transform="rotate(140 0 0)"></rect>
                    <rect x="0" y="6" width="15" height="1" fill="#172b4e" rx="1" ry="1"
                        transform="rotate(140 0 0)"></rect>
                </g>
                <g transform="translate(125 43)">
                    <rect x="-15" y="25" width="14" height="1" fill="#172b4e" rx="1" ry="1"
                        transform="rotate(40 -20 60)"></rect>
                    <rect x="-12" y="22" width="10" height="1" fill="#172b4e" rx="1" ry="1"
                        transform="rotate(40 -20 60)"></rect>
                </g>
                <g transform="translate(190 10)">
                    <rect x="0" y="0" width="5" height="4" fill="#96b8d5" rx="3" ry="3"
                        transform="rotate(10 0 0) translate (0 0)"></rect>
                    <rect x="5" y="5" width="2" height="2" fill="#96b8d5" rx="2" ry="2" cy="2"
                        cx="2" transform="rotate(10 0 0) translate (0 0)"></rect>
                </g>
                <g transform="translate(170 83)">
                    <rect x="0" y="0" width="40" height="1" fill="#172b4e" rx="1" ry="1"></rect>
                    <rect x="1" y="2" width="30" height="1" fill="#172b4e" rx="1" ry="1"></rect>
                    <rect x="2" y="4" width="14" height="1" fill="#172b4e" rx="1" ry="1"></rect>
                </g>
                <g transform="translate(235 85)">
                    <rect x="0" y="0" width="48" height="1" fill="#172b4e" rx="1" ry="1"
                        transform="rotate(0 0 0)"></rect>
                    <rect x="40" y="2" width="15" height="1" fill="#172b4e" rx="1" ry="1"
                        transform="rotate(0 0 0)"></rect>
                    <rect x="-6" y="-7" width="25" height="1" fill="#172b4e" rx="1" ry="1"
                        transform="rotate(0 0 0)"></rect>
                    <rect x="24" y="-7" width="8" height="1" fill="#172b4e" rx="1" ry="1"
                        transform="rotate(0 0 0)"></rect>
                </g>
            </g>
        </g>
    </g>
</svg>