<svg>
    <g>
        <g>
            <defs>
                <clipPath id="leaf-clip">
                    <circle cx="25" cy="25" r="25"></circle>
                </clipPath>
            </defs>
            <circle cx="25" cy="25" r="25" fill="white" stroke="black" strokewidth="6"
                filter="url(#dash-gradient)" style="stroke-width: 0px;"></circle>
            <g clippath="url(#leaf-clip)" style=""
                transform="matrix(0.507095, 0, 0, 0.507095, -1.390991, 1.164413)">
                <g transform="matrix(1, 0, 0, 1, -220.000005, -53.338998)">
                    <path
                        d="M247.268 67h.874l3.17.984 4.59.983 3.716 1.31-.11-.982.218-.328.766.11 1.31.765 1.204.874 1.092.765h.437l.547-1.748.328-.437h.874l.656.437.765.656 1.093 1.53.546.984.656 1.31v.22h.218l.11-1.42.437-.985.328-.328.765.11.874 1.092.546 1.092.766.984.765.765.655.328.546-1.31.548-1.422.874-1.2.327-.33.765-.11.546.33.438 1.53.328 1.31.765 1.64.33.546v.22h.327l.218-.548.766-1.092.11-.11h.546l.438.438.436 1.53.438 2.404.11 1.093.108 3.715.984.984.765-.657 2.076-2.077 1.094-.874h.22v-.22l1.2-.764 1.53-.984 2.187-1.2 1.858-.657h.766l.437.218.11.22v.873l-1.748.874-2.624 1.42-1.31.876-1.312.984-1.53 1.31-1.64 1.64-.984 1.202-.108.11-.328 1.748-.765 1.64.766.11 1.748.873.437.328.985-.328.547-.11h1.967l2.294.33 2.294.655.656.328v1.2l3.17.876 1.75.656 1.31.764 1.42 1.093.33.22v.655l-1.094.984-.766.874-1.2 1.31.108.548 1.092.984 1.094 1.092.983 1.202 1.094 1.202.546.438-.108.546-.875.547-.765.327.328.765.765 1.092v.22h.22l.654 1.2.436.984.656 1.64.656 2.623.656 1.313.328.328.218.328v.546l-.218.22h-.875l-1.75-.438-2.184-.328-5.027-.437.108.657v.874l-.328.33h-.873l-2.187-.656-.655-.11h-3.06l.11.874-.11.22h-.764l-2.623-.657-1.64-.546-1.53-.764-1.202-.875-.982-.874-.328-.326v1.748l-.766 3.388-.327 1.202-.874 2.404-.766 1.312-.546.655-.326.22h-.656l-.438-.547-.437-.874-.874 1.2-1.312 1.532-.875.874-1.202.983-1.31.985-.984.547h-.547l-.22-.328-.218-.875-.874.765-1.093.873-1.093.656-1.748.656-1.203.765-.982.984-.984 1.2-1.53 1.64-.437.22v.218h-.547l-.328-.437-.328-2.404-.546-1.31-.874-1.422-.656-1.312-.765-2.186-.327-1.092-.438.11-.11.218h-.218v.218h-.765l-.656-1.31-.22-.657-.327-1.967-.655.218-.984 1.093-.765.11-.33-.437-.327-6.996v-4.043l.218-1.857.548-1.748-2.514.765-1.748.328-1.967.218h-1.204l-.218-.328.11-.765-.766.22h-2.077l-1.64-.438-2.73-.766-2.734-.547-.764-.11-2.622-.11-.874-.108-.11-.655.874-.438 1.42-.437h.22v-.218l.656-.438.983-1.094.874-1.092 1.312-1.53.764-.766 1.42-1.092 1.094-.984.218-.656-.11-.11v-.874l1.64-1.748 1.64-1.202 1.31-.766.875-.436 1.86-.656 1.2-.437 2.406-.656 2.076-.654.984-.438.11-.218-1.094-.328-1.858-.437-1.092-.438-1.64-.983-1.53-1.202-1.31-1.093-1.094-.766v-.656l.11-.218.655-.22 2.185-.327 2.624-.22-.328-1.747-.547-1.312-.874-1.858-.437-1.42-.328-2.186-.11-.22v-.654l1.093-1.093v-1.53l-.327-2.952-.655-3.168-.22-.328v-.656l.22-.218z"
                        fill="#744383"></path>
                    <path
                        d="m247.596 67.437.765.11 2.733.874 5.027 1.094 1.75.656 1.2.436.984.11v-.874l-.108-.438.655.22 1.203.764 1.42 1.093.875.547h.875l.328-1.202.33-.983.436-.22.874.656.983 1.093 1.312 2.296.655 1.203.547.108.547-2.404.218-.328.547.11 1.2 2.076 1.203 1.31.765.657.22.108h.654l.438-.874.656-1.748.764-1.203.656-.546.328.218.765 2.623.764 1.748.546.875v.22l.765-.11.875-1.42.328-.22.328.656.436 1.75.328 2.404v3.278l-.983-.328-1.312-.328h-1.857l-1.42.547-.985.764-.655.875-.22-.33-.436-2.84-.547-2.078.656 3.28.22 1.748-.656-.22-.875-.327-.547-.11h-1.31l-1.313.22-.328-1.53-.328-2.733-.656-2.84-.655-2.077 1.093 4.26.328 2.078.327 2.515.11.656-1.202.875-.546.655-.874-.436-1.202-.984-1.094-.984-1.64-1.53-.327-.327-.327-2.188-.874-3.716-.984-3.278.546 2.295 1.202 4.81.22.982-.11.438-1.42-1.203-3.28-2.513-1.093-.875-.546-.656-.22-1.2-.546-2.078-.656-1.858.984 3.388.218 1.312-.546-.328-.984-.984-.874-.765-2.842-2.842-.874-.764-1.312-1.202-.218-.11.874 1.094 1.312 1.31.765.876.984 1.092.765.875v.33l-1.312.327 2.732.983.766.546-.11.438-.328.546v.437l-2.404-.218 2.076.327 1.202.437 1.093.22.875.654 1.42 1.42.765.547 1.53.766.984.766.655.764-.11.22-.11.108-1.31-.11-3.825-.982-3.17-.875-4.043-1.2h-.22l1.094.545 2.624.875 3.388.984 3.388 1.092 2.295.437.874.547.655.765.22.437-.11.984 1.31-.22h.656l-.108-.654-.874-.984-.874-.765-.984-.984-.875-.766-.218-.437.437.22 1.093.982 1.31 1.2.985 1.094.874.766.328.218-.11.546-.436-.218.328.437-.11 3.06-.11.218h-.327l-.22.657-.437 1.093-.218 1.53.218 1.42.547 1.094.984 1.093.874.765.11 2.404-1.968-.218-1.42-.22h-4.81l-.327-.218 1.2-.11-1.42-.108-.108.328-1.31-.328v-.218l-.657-.22-.984-.436.328-.11 1.967.874-1.75-.874-1.202-.327-3.934-.874-3.28-.765-1.31-.218 4.37 1.312 3.17.984.765.436v1.42l-.328.548-1.64.437h-1.64l-4.262-.657-5.027-.546-1.42-.11h-1.202l3.716.328 4.7.547 2.404.437 1.42.327-.11.22-2.403.873-1.857.656-.875.437-1.312.218h-1.42l-3.17-.327h-.655l-.11.11.874.437-.108.546-1.312.656-7.213 2.405 1.748-.438 4.808-1.422 2.95-.983 2.842-.656h1.53l-.11.874-1.31 1.31-1.42 1.094.546-.22 1.748-1.638 1.312-1.093.764-.437v-.22l1.75-.764 3.606-1.092 1.202-.22h1.093l.764-.655 2.732-.547 1.748-.328h1.094l2.404-.328h1.31l2.515.328.765 1.53.547.655-.22.438-1.202 1.31-1.202 1.86-.765.655-1.966 1.093-1.64 1.202-.765.546h-.22v.22l-4.37.108-2.406.328-.655.22 1.747-.33.984-.11 5.465-.108-.546.547-1.86 1.42-1.31 1.202-.874.765-1.42 1.31-2.952 2.952-.765.874-.985 1.2.546-.436 1.204-1.31 2.076-2.078.875-.764 1.093-.984 1.202-.984 1.64-1.312 1.42-1.092 1.31-.984 1.094-.874 2.405-1.42.108.218-.656 3.606-1.093 1.42-.438 1.75-.656.874-2.076 1.53-1.75 1.42-1.092.984-1.967 1.968-1.2 1.53-.766 1.093v.108l1.31-1.75 1.204-1.31.764-.875 1.093-1.093 1.203-.983 1.64-1.202 1.638-.984h.22l.108.438-.328 2.186-.655 2.077-.218.656-.984.766-1.64 1.64-.983 1.2.547-.546 1.53-1.64.765-.764h.328l.218-.437.438-.22.11.767-.22 1.092-1.31 4.263-.984 3.17-1.093 2.95-.765 1.967-.11.437h-.218l-.328-1.31-.874-1.64-.874-1.53-.875-2.295-.547-1.64v-.218h-.655l-.656.547h-.328l-.547-1.42-.437-2.405h-.765l-.983.654-.656.656h-.22l-.108-.984-.328-6.885v-2.622l.328-2.295.328-1.31.11-.985-1.094.22-2.076.654-2.186.328-1.093.11h-1.093l.437-1.093-1.092.11-.546.108h-1.75l-2.403-.546-2.406-.657-2.95-.547-.766-.108-2.404-.11.437-.218 1.422-.547 1.202-.984 1.42-1.858 1.312-1.42.656-.766 1.42-1.094.876-.655.546-.765v-.656l-.11-.218.328-.766.984-1.092 1.53-1.203 2.295-1.31 2.296-.875 4.81-1.42 1.638-.656.437-.438-.108-.437-1.092-.436-2.296-.656-1.31-.547-1.313-.872-.982-.766-1.42-1.202-1.094-.765v-.22l1.748-.327.875-.108h1.638l-.437-.22 1.638-.108v-.875l-.436-1.858-1.42-3.06-.33-1.203-.327-2.623.874-.874.11-.22v-2.294l-.33-2.732-.655-3.17-.11-.437z"
                        fill="#A8C835"></path>
                    <path
                        d="M295.792 93.776h.547l.108.11-.11 1.31 1.312.22 2.404.655 1.64.656 1.202.656.766.656v.22l.436.108.328.22-.218.436-1.312 1.312-.765.874-.873.983.11.548 1.31 1.202 1.312 1.31.983 1.204 1.202 1.31v.33l-1.64.655v.654l1.312 1.858.875 1.53.764 1.75.875 3.278.766 1.53.218.328-1.093-.11-2.73-.437-5.028-.436H299.4l.108 1.748-.983-.108-1.64-.438-.546-.11h-3.936v.984l-1.202-.218-2.623-.765-1.75-.765-1.31-.875-1.422-1.31-.436-.11-.11.11-.328 2.95-.656 2.842-.765 2.293-.874 1.86-.656.763-.438.11-.328-.328-.328-1.202-.765.328-1.31 1.748-1.313 1.42-1.64 1.422-1.966 1.31h-.328l-.11-1.2h-.764l-1.202 1.2-1.42.984-1.422.548-1.53.764-1.093.984-1.31 1.42-.985 1.203-.875.765h-.11l-.108-.984.545-1.64 1.093-2.622 1.094-2.95 1.857-5.575.982-3.168.547-1.748.436-1.968.328-1.64.875-2.95.764-3.278.874-3.06.656-.875 1.202-1.312.437-.436 1.202.328.437.11.328 1.202.328 1.42.11.22-.11-.984-.437-1.75h1.094l.437 2.077.33 1.093.546.984.218.437.437.22.33.328.655.436.328 1.093.655.875.984.874 1.31.546 1.64.328 1.53.437h1.858l1.42-.437 1.094-.764.766-.875.764-1.42.328.328 1.093 1.64 1.42 2.404-.873-1.75-1.312-2.075-.437-.766-.11-.545.328-.327-.436-.875v-.984l.656-1.312.656.11 1.748 1.092 1.203.874 1.64 1.75.327.327-.11.547-.655.765.982-.765.22-.11h.764l.874.657 1.202 1.092 1.203.984 1.093.984.764.765.656.436-.656-.765-.983-1.092-.766-.874-1.093-.984-1.638-1.202v-.22l2.623-.217-2.95.11-4.59-3.28-2.078-1.2v-.328l1.967-.438 2.405-.218h2.185l2.076.218h.33l-1.312-.218-1.312-.11h-2.295l-3.06.22h-.873l-.22-.547-.327-1.313-.546-.875-.438-.764-.546-1.42 1.858-.656 2.84-.875 4.045-.874 1.203-.22-1.42.11-5.684.984-2.952.655.22-.436.655-.765.546-1.202V96.07l-.326-1.092 2.294-.656 2.514-.546z"
                        fill="#A8C835"></path>
                    <path
                        d="M247.268 67h.874l3.17.984 4.59.983 3.716 1.31-.11-.982.218-.328.766.11 1.31.765 1.204.874 1.092.765h.437l.547-1.748.328-.437h.874l.656.437.765.656 1.093 1.53.546.984.656 1.31v.22h.218l.11-1.42.437-.985.328-.328.765.11.874 1.092.546 1.092.766.984.765.765.655.328.546-1.31.548-1.422.874-1.2.327-.33.765-.11.546.33.438 1.53.328 1.31.765 1.64.33.546v.22h.327l.218-.548.766-1.092.11-.11h.546l.438.438.436 1.53.438 2.404.11 1.093v3.606l-.438-.11-.328-.328h.218l-.108-3.278-.438-2.95-.546-1.75-.547.546-.655 1.094-.546.11-.548-.548-.983-2.076-.657-2.186-.328-.874-.546.328-.766 1.092-.656 1.64-.437.984-.218.328h-.655l-.875-.656-1.092-1.093-.984-1.532-.547-.983-.438-.11-.437 1.968-.328.874-.547-.11-.983-1.747-1.093-1.86-1.202-1.31-.656-.328-.327.328-.657 1.967-.22.11h-.655l-.984-.656-1.748-1.31-1.312-.656.11.984-.11.218h-.983l-1.748-.656-1.64-.546-4.152-.875-2.84-.875-.985-.22.656 2.953.33 2.076.108 1.202v2.295l-.765.876-.22.436.438 2.952.657 1.64.983 2.075.438 1.857v.656l-.11.22-1.202.217 1.53.218v.11l-1.857-.11h-1.313l-2.186.328h-.436v.22l.547.218 1.64 1.42 1.42 1.094 1.64.983 2.295.766 1.75.546.436.328-.11.546-.872.547-2.952.984-3.388.983-2.185.874-2.077 1.203-1.093.874-.983.876-.546.764-.11.547.11.11v.655l-.766.984-1.75 1.31-.872.766-.766.874-1.093 1.312-1.202 1.53-1.093.874-1.42.546 1.966.11 2.733.437 2.296.546 2.84.767.657.11h1.75l1.42-.22.218.11-.108.546-.328.547 3.825-.438 1.638-.437 1.312-.437h.765v.984l-.437 1.857-.22 1.748v2.623l.33 6.886V127l.874-.765.983-.656h.765l.22.655.436 2.186.328 1.094.546-.328.438-.328.655.11.546 1.42.655 1.967.875 1.75.984 1.748.436 1.093v.655h.22l.108-.764.984-2.514.984-2.732 1.42-4.59.875-2.95v-.875h-.437l-.11.437-.327.218h-.218l-1.53 1.53-.984 1.203-.328.22.22-.44 1.2-1.42 1.64-1.64.656-.436.547-1.967.326-1.202.22-2.077-1.86 1.094-2.075 1.53-1.748 1.64-1.53 1.638-1.203 1.53-.766 1.094-.108-.22.764-1.2 1.203-1.422.765-.874 2.185-2.186 1.53-1.202 1.858-1.42.766-.548.546-.764.438-1.75.874-1.092.22-.328.655-3.716-2.406 1.42-1.75 1.422-1.638 1.202-1.53 1.202-2.84 2.404-1.86 1.75-1.857 1.857-.766.875-.328.22.218-.438.984-1.203 1.53-1.64 2.95-2.95.876-.765 1.31-1.202 1.53-1.203 1.312-.984-5.355.11-2.184.33-.984.108.328-.22 1.31-.327 1.86-.217h4.37v-.22l1.75-1.2 1.092-.766 1.75-.983.764-.656 1.202-1.858.765-.765.546-.656-.22-.438-.655-.983-.328-.876-2.514-.328h-1.31l-2.733.328-1.42.11-3.498.655-.547.327-.546.437h-1.094l-1.53.328-3.28.984-1.53.655-.436.44-1.202.873-1.312 1.202-1.092.984-.328.217-.328-.11 1.092-.873 1.312-1.202.328-.328.11-.656.11-.22-1.532.11-2.84.656-4.372 1.42-3.388.985-1.968.545-.437-.11 7.87-2.622 1.31-.656.11-.437-1.312-.437v-.11l1.204-.11 3.168.33h1.42l1.313-.22 1.75-.765 2.84-.983.546-.22-2.293-.545-3.06-.437-5.355-.547-1.42-.11-.11-.218h1.31l4.59.437 3.498.438 2.623.437h1.64l1.64-.437.217-.438v-1.42l-1.31-.547-7.214-2.186v-.108l1.092.108 3.388.765 3.716.875 1.64.328 2.295 1.092-.328.11-1.968-.874 1.312.656v.218l.764.11.547.108.11-.218h3.606v.11l-2.186.108-.873.11h4.81l2.622.328.765.218-.22-2.404-1.31-1.202-.765-.984-.437-1.202-.11-1.202.22-1.312.546-1.31.22-.44h.327l.11-3.277-.438-.437.11-.22.545.438.11-.546-.438-.218-1.202-1.094-.765-.874-1.858-1.748-.656-.438.765.874.876.766.983.983.873.764.438.656v.546l-2.076.11v-.984l-.655-.983-.548-.44-.437-.217-2.295-.437-4.81-1.53-3.387-.984-1.967-.765-.437-.437 1.092.218 5.136 1.53 4.7 1.202 1.092.22.765-.11-.327-.546-.874-.765-1.53-.876-.875-.437-.766-.655-.765-.875-.766-.656-.437-.217-1.203-.22-.874-.327-2.514-.437v-.11l1.53.11 1.094.108.218.11-.11-.438.438-.656v-.328l-.874-.546-2.624-.874.11-.22.874-.217.22-.22v.22h.217l-.33-.548-.982-1.092-.765-.875-1.53-1.64-.983-1.092-.328-.546.436.218.875.875.874.764 1.31 1.203 2.625 2.622.874.765.765.655-.327-1.64-.874-2.95.108-.328 1.093 3.28.33 1.638.217.766 1.093.983 2.186 1.638 1.748 1.42 1.094.875-.22-1.31-1.747-6.995.11-.438.874 2.842.984 3.934.327 1.75.11.983 1.202 1.2.875.766 1.2 1.093 1.422.982.328.11.765-.875.765-.546h.22l-.33-1.202-.436-3.388-.656-2.84-.546-2.077.11-.438.873 2.95.656 3.06.328 2.843.11.765 1.312-.328h1.31l-.108.328-1.093.218-1.092.33-1.202.983-.766 1.093-.436 1.31v2.187l.328 1.202.874 1.203.983.874 1.31.655.328.11 1.75.11 1.748-.22.11.11.218-.22.11.438-.548.328-.328-.11-2.185.22-1.093.437-.983.764-.656.875-.436 1.092-.11.656v1.748l.547 1.312.766.984.874.655.765.328.546.11h2.078v-.33l.656-.436-.218.655-.328.765-.11.656v1.202l.438 1.42.655.875.875.765 1.31.546.44.11h1.42l1.31-.328 1.094-.656.655-.546.656-1.093.33-.874v-1.857l-.548-1.422-.656-1.093-.546-.437-1.312-.656-.437-.11h-1.2l-1.422.438-1.42.874-.547.546h-.436v-.218l1.093-.874 1.42-.875.547-1.42.218-.547h.11l-.11 1.75.547-.11h1.31l1.422.437.655.218.11.44.655.764.765 1.53.328 1.092v1.42l-.437 1.094-.765 1.093-.765.765-1.094.656-1.092.327h-2.076l-.875-.217.22.765.656.874.983.656 1.31.438h1.094l1.31-.438.985-.656.764-.874.436-1.202v-1.64l-.436-1.748.655.11 1.31-.438.984-.765.546-.984.22-.873v-.875l-.328-1.42-.656-1.093-1.203-.876-.655-.218.11-.328.545-.546.438-.765.33-1.31v-1.64l-.44-1.53-.436-.657-.11-.328-.327-.11-.547-.545-.218-.328.656.217.983.656.985-.328.547-.11h1.967l2.294.33 2.294.655.656.328v1.2l3.17.876 1.75.656 1.31.764 1.42 1.093.33.22v.655l-1.094.984-.766.874-1.2 1.31.108.548 1.092.984 1.094 1.092.983 1.202 1.094 1.202.546.438-.108.546-.875.547-.765.327.328.765.765 1.092v.22h.22l.654 1.2.436.984.656 1.64.656 2.623.656 1.313.328.328.218.328v.546l-.218.22h-.875l-1.75-.438-2.184-.328-5.027-.437.108.657v.874l-.328.33h-.873l-2.187-.656-.655-.11h-3.06l.11.874-.11.22h-.764l-2.623-.657-1.64-.546-1.53-.764-1.202-.875-.982-.874-.328-.326v1.748l-.766 3.388-.327 1.202-.874 2.404-.766 1.312-.546.655-.326.22h-.656l-.438-.547-.437-.874-.874 1.2-1.312 1.532-.875.874-1.202.983-1.31.985-.984.547h-.547l-.22-.328-.218-.875-.874.765-1.093.873-1.093.656-1.748.656-1.203.765-.982.984-.984 1.2-1.53 1.64-.437.22v.218h-.547l-.328-.437-.328-2.404-.546-1.31-.874-1.422-.656-1.312-.765-2.186-.327-1.092-.438.11-.11.218h-.218v.218h-.765l-.656-1.31-.22-.657-.327-1.967-.655.218-.984 1.093-.765.11-.33-.437-.327-6.996v-4.043l.218-1.857.548-1.748-2.514.765-1.748.328-1.967.218h-1.204l-.218-.328.11-.765-.766.22h-2.077l-1.64-.438-2.73-.766-2.734-.547-.764-.11-2.622-.11-.874-.108-.11-.655.874-.438 1.42-.437h.22v-.218l.656-.438.983-1.094.874-1.092 1.312-1.53.764-.766 1.42-1.092 1.094-.984.218-.656-.11-.11v-.874l1.64-1.748 1.64-1.202 1.31-.766.875-.436 1.86-.656 1.2-.437 2.406-.656 2.076-.654.984-.438.11-.218-1.094-.328-1.858-.437-1.092-.438-1.64-.983-1.53-1.202-1.31-1.093-1.094-.766v-.656l.11-.218.655-.22 2.185-.327 2.624-.22-.328-1.747-.547-1.312-.874-1.858-.437-1.42-.328-2.186-.11-.22v-.654l1.093-1.093v-1.53l-.327-2.952-.655-3.168-.22-.328v-.656l.22-.218zm48.524 26.776-2.514.546-2.294.656.327 1.093v1.968l-.764 1.53-.656.656.11.218 2.842-.655 5.683-.984 1.42-.11-3.825.766-2.95.764-2.624.874-.546.22.656 1.748.655.874.44 1.093.108.874.22.328 2.075-.11 1.858-.11h2.296l2.076.22 1.093.22-2.95-.33h-2.187l-2.404.22-1.967.437v.328l2.077 1.2 1.53 1.094 1.967 1.42 1.094.766 2.95-.11-2.622.22v.218l1.312.984 1.2.984.876.873.764.874.984 1.092h-.218l-2.623-2.404-1.203-.984-1.2-1.092-.548-.328h-.765l-.654.437-.548.437.766-.874-.11-.547-1.202-1.2-.765-.875-1.75-1.202-1.31-.765-.546.11-.546 1.2v.985l.437.875-.326.327.218.765 1.202 1.968 1.094 1.857.108.328-1.31-2.185-1.312-1.968-.328.328-.766 1.42-.764.766-.875.546-1.42.437h-1.857l-1.86-.546-1.638-.327-1.31-.655-.985-.984-.437-.765-.218-.876-.875-.546-.328-.437h-.218l-.218-.436-.656-1.203-.656-2.84v-.11h-1.093l.547 2.186v.547l-.328-.983-.33-1.64-.108-.22-1.42-.436-.438.22-1.093 1.092-.873 1.092-.765 2.514-.874 3.498-.765 2.84-.547 2.077-.11.656-.546 2.405-1.2 3.606-1.532 4.7-.984 2.84-1.2 3.06-.767 1.86-.218.983.108.765.547-.328 1.31-1.42.767-.875 1.2-1.313 1.094-.765.984-.436 1.42-.548 1.094-.764 1.092-.984.438-.437h.765l.108 1.202.546-.11 1.858-1.31 1.64-1.42.764-.766 1.203-1.532.655-.874.655-.218.328 1.202.438.328.546-.328.655-.984.875-1.967.765-2.514.547-2.732.218-2.294.328-.11.874.766 1.202.983 1.53.875 2.077.764 2.514.656h.327v-.983h3.934l1.86.437.873.218h.438l-.11-1.748h1.094l5.027.437 3.17.548h.654l-.874-1.53-.765-2.842-.437-1.312-.984-2.076-1.202-1.748-.547-.766v-.655l1.64-.657-.11-.437-.764-.766-.983-1.2-1.203-1.313-1.857-1.858.11-.438 2.403-2.623.656-.657-.11-.328-.327-.218h-.33l-.218-.437-.874-.656-1.64-.765-1.966-.657-2.296-.546h-.328l.11-1.31-.11-.11h-.546z"
                        fill="#5A4227"></path>
                    <path
                        d="M296.338 78.257h.766l.437.218.11.22v.873l-1.748.874-2.624 1.42-1.31.876-1.312.984-1.53 1.31-1.64 1.64-.984 1.202-.108.11-.328 1.748-.765 1.64.766.11.546.217.546.546.22.328-.548-.22-1.092-.327h-.547v.328l.44.875.217.546v1.858l-.437 1.312-.765.983-.765.764-1.093.547-.437.11h-1.75l-1.31-.437-.547-.328-.874-.656v-.438l.764.655 1.092.22.11-.33.765-.655.11-.218h.22v-.218l.983-.438.655-.765.766-1.75.218-.655v-1.2l-.11-.22-1.2-.11-.33-.327-.11-.546h-1.528l-.548.11v.218l-.873.656-.766 1.093-.11.22-.436.108.22-.546.874-1.31.11-.548v-.983l-.22-1.092-.327-.656-.547-.656v-.218l-.437-.218-1.202-.875-1.64-.874-.326-.11-.11-.436h.765l1.092.437.438.22-.328-1.748-.437-2.187-.328-1.31.11-.438.655 2.186.437 2.513.218 1.093.655-.875.984-.765 1.42-.546h1.858l1.312.328.765.327.437.436.545.328.875.875.765-.657 2.076-2.077 1.094-.874h.22v-.22l1.2-.764 1.53-.984 2.187-1.2 1.858-.657z"
                        fill="#58382D"></path>
                    <path
                        d="m273.716 84.923.328.11v.218l.546.11 1.748.984.984.766.547.546.655.874.218.656.11.765v.984l-.22.765-.983 1.42.328.11.22-.547.764-.984.546-.438h.218v-.218l.548-.22h1.64l.217.766.33.11.982.11.22.327v1.2l-.656 1.75-.656 1.093-.547.546-.874.22v.218h-.22l-.218.437-.656.547-.11.22h-.873l-.875-.766-.656-1.42-.218-.874-.438-.11-1.857.22-1.532-.11-1.092-.437-1.093-.766-.765-.766-.656-.983-.328-1.202v-2.186l.546-1.53.766-.983 1.202-.984 1.093-.328.766-.22z"
                        fill="#744383"></path>
                    <path
                        d="m249.782 69.077.436.218.875.875.874.764 1.31 1.203 2.625 2.622.874.765.765.655-.327-1.64-.874-2.95.108-.328 1.093 3.28.33 1.638.217.766 1.093.983 2.186 1.638 1.748 1.42 1.094.875-.22-1.31-1.747-6.995.11-.438.874 2.842.984 3.934.327 1.75.11.983 1.202 1.2.875.766 1.2 1.093 1.422.982.328.11.765-.875.765-.546h.22l-.33-1.202-.436-3.388-.656-2.84-.546-2.077.11-.438.873 2.95.656 3.06.328 2.843.11.765 1.312-.328h1.31l-.108.328-1.093.218-1.092.33-1.202.983-.766 1.093-.436 1.31v2.187l.328 1.202.874 1.203.983.874 1.31.655.328.11 1.75.11 1.748-.22.11.11.218-.22.11.438-.548.328-.328-.11-2.185.22-1.093.437-.983.764-.656.875-.436 1.092-.11.656v1.748l.11.656-.328-.11-.328-1.31-.11-1.64-1.31-1.202-.766-.984-.437-1.202-.11-1.202.22-1.312.546-1.31.22-.44h.327l.11-3.277-.438-.437.11-.22.545.438.11-.546-.438-.218-1.202-1.094-.765-.874-1.858-1.748-.656-.438.765.874.876.766.983.983.873.764.438.656v.546l-2.076.11v-.984l-.655-.983-.548-.44-.437-.217-2.295-.437-4.81-1.53-3.387-.984-1.967-.765-.437-.437 1.092.218 5.136 1.53 4.7 1.202 1.092.22.765-.11-.327-.546-.874-.765-1.53-.876-.875-.437-.766-.655-.765-.875-.766-.656-.437-.217-1.203-.22-.874-.327-2.514-.437v-.11l1.53.11 1.094.108.218.11-.11-.438.438-.656v-.328l-.874-.546-2.624-.874.11-.22.874-.217.22-.22v.22h.217l-.33-.548-.982-1.092-.765-.875-1.53-1.64-.983-1.092-.328-.546z"
                        fill="#5A7718"></path>
                    <path
                        d="M247.268 67h.874l3.17.984 4.59.983 3.716 1.31-.11-.982.218-.328.766.11 1.31.765 1.204.874 1.092.765h.437l.547-1.748.328-.437h.874l.656.437.765.656 1.093 1.53.546.984.656 1.31v.22h.218l.11-1.42.437-.985.328-.328.765.11.874 1.092.546 1.092.766.984.765.765.655.328.546-1.31.548-1.422.874-1.2.327-.33.765-.11.546.33.438 1.53.328 1.31.765 1.64.33.546v.22h.327l.218-.548.766-1.092.11-.11h.546l.438.438.436 1.53.438 2.404.11 1.093v3.606l-.438-.11-.328-.328h.218l-.108-3.278-.438-2.95-.546-1.75-.547.546-.655 1.094-.546.11-.548-.548-.983-2.076-.657-2.186-.328-.874-.546.328-.766 1.092-.656 1.64-.437.984-.218.328h-.655l-.875-.656-1.092-1.093-.984-1.532-.547-.983-.438-.11-.437 1.968-.328.874-.547-.11-.983-1.747-1.093-1.86-1.202-1.31-.656-.328-.327.328-.657 1.967-.22.11h-.655l-.984-.656-1.748-1.31-1.312-.656.11.984-.11.218h-.983l-1.748-.656-1.64-.546-4.152-.875-2.84-.875-.985-.22.656 2.953.33 2.076.108 1.202v2.295l-.765.876-.22.436.438 2.952.657 1.64.983 2.075.438 1.857v.656l-.11.22-1.202.217 1.53.218v.11l-1.857-.11h-1.313l-2.186.328h-.436v.22l.547.218 1.64 1.42 1.42 1.094 1.64.983 2.295.766 1.75.546.436.328-.11.546-.872.547-2.952.984-3.388.983-2.185.874-2.077 1.203-1.093.874-.983.876-.546.764-.11.656-.438-.11v-.874l1.64-1.748 1.64-1.202 1.31-.766.875-.436 1.86-.656 1.2-.437 2.406-.656 2.076-.654.984-.438.11-.218-1.094-.328-1.858-.437-1.092-.438-1.64-.983-1.53-1.202-1.31-1.093-1.094-.766v-.656l.11-.218.655-.22 2.185-.327 2.624-.22-.328-1.747-.547-1.312-.874-1.858-.437-1.42-.328-2.186-.11-.22v-.654l1.093-1.093v-1.53l-.327-2.952-.655-3.168-.22-.328v-.656l.22-.218z"
                        fill="#5B4428"></path>
                    <path
                        d="m290.546 102.738.328.437.656.983.328.875.11.874.11.328 2.075-.22 1.858-.108h2.296l2.076.22 1.42.327v.11l-1.2-.11-2.077-.22h-2.186l-2.406.22-1.967.436.547.438 1.53.874 1.53 1.093 1.967 1.42 1.094.766 2.95-.11.22.22-1.64.11h-1.202v.218l.437.22 1.42 1.092 1.093.983 1.42 1.53.765.875v.328l-.874-.656-1.31-1.312-1.204-.984-1.53-1.31-.874-.657h-.765l-.654.438-.328.327h-.22l.22-.437.436-.437-.108-.547-1.203-1.2-.765-.875-1.64-1.093-1.31-.765h-.438l-.546 1.202v.983l.437.983-.11.22h-.326l.218.545.765 1.313 1.093 1.75.874 1.638-.11.22-1.638-2.732-.875-1.312-.436-.547-.874 1.638-.874.875-.875.546-1.42.437h-1.857l-1.86-.547-.763-.11v-.108l1.53-.22 1.42-.546.984-.874.656-1.093.218-.766.11-1.202-.328-1.42v-.33l1.42-.545.657-.437.546-.546.547-1.093.108-.327h.22l.108-2.295z"
                        fill="#587417"></path>
                    <path
                        d="m271.75 103.83 1.2.766.766.437-.328.11-.765-.22-1.202 1.203-.874 1.092-.764 2.514-.875 3.498-.765 2.84-.546 2.077-.11.656-.546 2.405-1.202 3.606-1.53 4.7-.984 2.84-1.202 3.06-.765 1.86-.22.983v.765l-.327-.22v-1.2h.22l.108-.766.984-2.514.984-2.732 1.42-4.59.875-2.95v-.875h-.437l-.11.437-.327.218h-.218l-1.53 1.53-.984 1.203-.328.22.22-.44 1.2-1.42 1.64-1.64.656-.436.547-1.967.326-1.202.22-2.077-1.86 1.094-2.075 1.53-1.748 1.64-1.53 1.638-1.203 1.53-.766 1.094-.108-.22.764-1.2 1.203-1.422.765-.874 2.185-2.186 1.53-1.202 1.858-1.42.766-.548.546-.764.438-1.75.874-1.092.22-.328.655-3.716-2.406 1.42-1.75 1.422-1.638 1.202-1.53 1.202-2.84 2.404-1.86 1.75-1.857 1.857-.766.875-.328.22.218-.438.984-1.203 1.53-1.64 2.95-2.95.876-.765 1.31-1.202 1.53-1.203 1.312-.984-5.355.11-2.184.33-.984.108.328-.22 1.31-.327 1.86-.217h4.37v-.22l1.75-1.2 1.092-.766 1.75-.984.764-.655 1.202-1.858.765-.765.656-.875z"
                        fill="#628319"></path>
                    <path
                        d="m280.71 83.722 1.203.218 1.53.765.983.546.765.876.33.546.218.984v1.64l-.437 1.202-.655.983-.547-.218-1.092-.546-.984-.218h-1.312l-.874.218-.437.218h-.33l-.108-1.64-.437-.983-.22-.436-.546-.437v-.22l-.328-.107-.546-.656.108-.22.22.11v-.218h-.22l.22-.656.545-.656 1.31-.765.766-.22.874-.108z"
                        fill="#754484"></path>
                    <path
                        d="M280.93 101.863h1.2l1.204.438.983.656.656.874.656 1.42.108.44v1.856l-.547 1.312-.764.984-1.092.764-1.093.438-.655.11h-1.42l-1.312-.438-.328-.328.218-.546.765-1.203.438-.984.655-2.077-.108-1.64-.546-.438-.547-.546-.11-.327-.22-.11 1.312-.547.547-.11z"
                        fill="#754484"></path>
                    <path
                        d="m249.126 97.274 1.092.108 3.388.765 3.716.875 1.64.328 2.295 1.092-.328.11-1.968-.874 1.312.656v.218l.764.11.547.108.11-.218h3.606v.11l-2.186.108-.873.11h4.81l3.496.437v.328l.22.11v.218l.327.11.437.764.11.547-.22.218-.655-.983-.328-.876-2.514-.328h-1.31l-2.733.328-1.42.11-3.498.655-.547.327-.546.437h-1.094l-1.53.328-3.28.984-1.53.655-.436.44-1.202.873-1.312 1.202-1.092.984-.328.217-.328-.11 1.092-.873 1.312-1.202.328-.328.11-.656.11-.22-1.532.11-2.84.656-4.372 1.42-3.388.985-1.968.545-.437-.11 7.87-2.622 1.31-.656.11-.437-1.312-.437v-.11l1.204-.11 3.168.33h1.42l1.313-.22 1.748-.765 2.842-.983.546-.22-2.293-.545-3.06-.437-5.356-.547-1.42-.11-.11-.218h1.312l4.59.437 3.498.438 2.623.437h1.64l1.64-.437.217-.438v-1.42l-1.312-.547-7.212-2.186v-.108z"
                        fill="#597318"></path>
                    <path
                        d="m273.716 95.853.983.11-.22.327.657.656h1.64l.11.328v.764l-.33.984-.22 1.202-.545 1.093-.327.765-.656 1.202-.22.11-.546 1.31-.766-.108-.983-.656-.765-.874-.656-1.312-.11-.328v-1.748l.33-1.312.655-1.092 1.092-.984.874-.437z"
                        fill="#A271B5"></path>
                    <path
                        d="M280.273 90.825h1.64l.218.765.33.11.982.11.22.327v1.202l-.656 1.747-.656 1.093-.547.546-.874.22v.218h-.22l-.218.437-.656.547-.11.22h-.873l-.875-.766-.656-1.42-.11-.437v-1.53h.22l.11-.547 1.2-1.748.766-.656h.218v-.218l.547-.22z"
                        fill="#9964A9"></path>
                    <path
                        d="M290 92.683h1.75l2.184.328 1.968.438.437.328-2.187.437-2.95.765v.328l.218.765v1.968l-.764 1.53-.656.766 2.842-.656 5.683-.984.874-.11h1.2v.11l-4.042.765-2.624.654-2.076.656-1.53.547-.438-.11-.546-.545-1.093-.766-.327-.11.22-.655.546-1.092.217-.546v-2.295l-.328-1.858-.11-.33 1.53-.327z"
                        fill="#587217"></path>
                    <path
                        d="m271.093 86.344.437.11.437.328 1.42-.438h.547l.437.438.11 2.076-.218 1.093-.656 1.968-.546.765-1.202.11.11.218h-.33v.22h-.327l-.217.656-.437-.22-.766-.983-.436-.984-.11-.547v-2.186l.546-1.53.328-.437.875-.437v-.22z"
                        fill="#9A65A9"></path>
                    <path
                        d="m288.47 93.994.328.328.218.875v2.295l-.655 1.53-.437.765.547.11 1.093.873.11.328.327.11.546 1.202v2.295l-.11.328h-.218l-.108.656-.656 1.092-.875.655-1.312.546h-.328l.437 1.86-.22 1.528-.545 1.095-.984 1.093-1.093.546-1.2.328h-1.532l-1.31-.546-1.094-.984-.657-.875-.218-1.093-.438-.218-.546-.328-.764-.874-.656-1.203-.655-2.84h-.875l.547 2.076v.547l-.22.11-.436-1.75-.218-1.202-.546-.108-1.312-.765-.874-.655v-.656l.547.546.765.656.983.437.546.11h2.078v-.33l.656-.436-.218.655-.328.765-.11.656v1.202l.438 1.42.655.875.875.765 1.31.546.44.11h1.42l1.31-.328 1.094-.656.655-.546.656-1.093.328-.874v-1.857l-.546-1.422-.656-1.093-.546-.437-1.312-.656-.437-.11h-1.2l-1.422.438-1.42.874-.547.546h-.436v-.218l1.093-.874 1.42-.875.547-1.42.218-.547h.11l-.11 1.75.547-.11h1.31l1.42.437.657.218.11.438.655.766.765 1.53.328 1.092v1.42l-.437 1.094-.765 1.093-.765.765-1.094.656-1.092.327h-2.076l-.875-.217.22.765.656.874.983.656 1.31.438h1.094l1.31-.438.984-.656.766-.874.436-1.202v-1.64l-.436-1.748.655.11 1.31-.438.984-.765.546-.984.22-.873v-.875l-.328-1.42-.656-1.093-1.203-.876-.655-.218.11-.328.545-.546.438-.765.33-1.31v-1.64l-.22-.875v-.438z"
                        fill="#3C2744"></path>
                    <path
                        d="M278.962 102.63h.328l.546.545.11.327.436.22.22.218.108 1.64-.984 2.95-.655.984-.436.764v.22l-.547-.22-.983-.983-.546-1.093-.22-.874v-1.202l.22-.984.546-.984.655-.764 1.202-.765z"
                        fill="#9965A9"></path>
                    <path
                        d="M280.6 90.716h1.422l.984.218 1.202.765.655.765.438.874.22.764v.983l-.33 1.42-.655 1.094-.873.875-.875.438-1.093.218-1.312-.108-1.42-.547.328-.218.436.11.11-.33.765-.655.11-.218h.22v-.218l.983-.438.655-.765.766-1.75.218-.654v-1.203l-.11-.22-1.2-.108-.33-.33-.11-.546-1.2-.11v-.108z"
                        fill="#754484"></path>
                    <path
                        d="m249.126 97.274 1.092.108 3.388.765 3.716.875 1.64.328 2.295 1.092-.328.11-1.968-.874 1.312.656v.218l.764.11.547.108.11-.218h3.606v.11l-2.186.108-.873.11h4.81l3.496.437v.328l.22.11v.218l.327.11.437.764.11.547-.22.218-.655-.983-.328-.876-2.514-.328h-1.31l-2.733.328-1.42.11-1.313.218-.327-.11-2.295.438-.22.11h-.764l-.327-.438.328-.328.11-.22v-1.42l-1.312-.546-7.212-2.186v-.108z"
                        fill="#5C7718"></path>
                    <path
                        d="M267.923 113.338h.11l-.11 1.203-.546 1.75-1.31.764.217-.436.328-.765.328-1.312.874-1.092.11-.11zm-1.967 3.716.438.22.874-.22v1.968l-.22.765-.546 1.748-.218.547-.437 1.748-.984 3.06-.655 2.077-.11.875-.874 2.513-1.202 3.06-.765 1.86-.22.982v.765l-.327-.22v-1.2h.22l.108-.766.984-2.514.984-2.732 1.42-4.59.875-2.95v-.875h-.437l-.11.437-.327.218h-.218l-1.53 1.53-.984 1.203-.328.22.22-.44 1.2-1.42 1.64-1.64.656-.436.547-1.967.326-1.202.22-2.077-1.86 1.094-2.075 1.53-1.748 1.64-1.53 1.638-1.203 1.53-.766 1.094-.108-.22.764-1.2 1.203-1.422.765-.874 2.185-2.186 1.53-1.202 1.858-1.42.766-.548z"
                        fill="#628519"></path>
                    <path
                        d="m249.782 69.077.436.218.875.875.874.764 1.31 1.203 2.625 2.622.874.765.546.546.11.548.327.328v.218l.437.218.983.765 1.75 1.312 1.092 1.092-.547-.11.656.328.438.547-.218.218-.11.438-1.31-.656-.766-.655-.765-.875-.766-.656-.437-.217-1.203-.22-.874-.327-2.514-.437v-.11l1.53.11 1.094.108.218.11-.11-.438.438-.656v-.328l-.874-.546-2.624-.874.11-.22.874-.217.22-.22v.22h.217l-.33-.548-.982-1.092-.765-.875-1.53-1.64-.983-1.092-.328-.546z"
                        fill="#668A1B"></path>
                    <path
                        d="m269.017 91.7.218.218.328.874.547.656.327.328-.22.218.33.11 1.092.655.874.437 1.092.437-.328.22-1.092.654-.656.546-.984 1.42-.546-.108-1.093-1.092-.656-1.203-.217-1.092v-.874l.437-1.42.547-.985z"
                        fill="#754484"></path>
                    <path
                        d="M280.6 91.81h.766l-.22.217.33.328-.11 1.42-.437.984-.22.655-.436.656-.656.548-.765.218-.22.546-.218.328-.437-.11-.656-1.42-.11-.437v-1.53h.22l.11-.547.545-.546.547.11.22-.438.872-.655.875-.328z"
                        fill="#A271B5"></path>
                    <path
                        d="m279.508 84.158.438.11.655.765.11.218v2.078l-.11.328-.108.437v2.185l.328.11-.984.328-.437.218h-.33l-.108-1.64-.437-.983-.22-.436-.546-.437v-.22l-.328-.107-.546-.656.108-.22.22.11v-.218h-.22l.22-.656.545-.656.546-.328.874-.218.328-.11z"
                        fill="#9964A9"></path>
                    <path
                        d="m296.886 78.803.108.438-.655.766h-.33v.218l-.327.11v-.22l-.218.22-.22.108-.327-.108-.11.436-1.092.438-1.53.983-.437.44-.766.436-.547.436-1.093.766-1.093.983-.764.985-.656.547-.655.983-.22-.22-.217-.655v-.655l1.748-1.75.875-.763 1.203-1.093 1.748-1.204.11-.218 3.498-1.75 1.42-.545.548-.11z"
                        fill="#587517"></path>
                    <path
                        d="M274.48 105.36h1.094l.437 2.077.33 1.093.546.984.218.437.328.11-.766 1.53v1.312l.984 3.388 1.64 6.666.11.984-.22-.218-1.64-5.793-1.53-4.92-.655-2.294-.546-2.405.108-.436.11.22-.11-.984-.437-1.75z"
                        fill="#5A7518"></path>
                    <path
                        d="m288.47 93.994.328.328.218.875v2.295l-.655 1.53-.437.765.547.11 1.093.873.11.328.327.11.546 1.202v2.295l-.11.328h-.218l-.108.656-.656 1.092-.875.655-1.312.546h-.328l.437 1.86-.22 1.528-.545 1.095-.984 1.093-1.093.546-1.2.328h-1.532l-1.31-.546-1.094-.984-.657-.875-.218-1.093h.218l.22.22h.108l.22.764.656.874.983.656 1.31.438h1.094l1.31-.438.984-.656.766-.874.436-1.202v-1.64l-.436-1.748.655.11 1.31-.438.984-.765.546-.984.22-.873v-.875l-.328-1.42-.656-1.093-1.203-.876-.655-.218.11-.328.545-.546.438-.765.33-1.31v-1.64l-.22-.875v-.438z"
                        fill="#3C2743"></path>
                    <path
                        d="M269.563 87.437h.327l-.327 1.093-.11.437v2.186l.33 1.202.873 1.203.983.874 1.31.655.328.11 1.75.11 1.748-.22.11.11.218-.22.11.438-.548.328-.327-.11-2.187.22-1.093.437-.983.764-.656.875-.436 1.092-.11.656v1.748l.11.656-.328-.11-.328-1.31-.11-1.64-1.31-1.202-.766-.984-.437-1.202-.11-1.202.22-1.312.546-1.31.22-.44h.327l.11-3.06.546-.873zm-.547 4.262-.765 1.53-.217.874v.874l.328 1.312.656 1.092.984.984.546.11 1.093-1.53 1.202-.875.764-.327-.328-.218-1.42-.656-.984-.548-.328-.328-.328-.108.22-.22-.548-.436-.546-.875-.218-.656h-.11z"
                        fill="#3E2845"></path>
                    <path
                        d="M273.934 84.814h.765l1.092.437.874.766.328-.437.11.327-.11.22h.22v.217l-.22.11.547.656.875.764.547 1.093.218 1.203-.11.764.984-.436.656-.11h1.312l1.202.328 1.093.546h.437l.328-.546.22.11-.11.655h.327v.33l.218.108-.656.22.547 1.092.217.546v1.858l-.437 1.312-.765.983-.765.764-1.093.547-.437.11h-1.75l-1.31-.437-.547-.328-.874-.656v-.438l.764.655 1.092.547 1.312.328 1.312-.11.874-.327.656-.438.874-.983.437-.984.22-1.093v-.983l-.437-1.312-.765-.983-1.202-.766-.984-.22h-1.42l-.548.22h-.328v.218l-.873.656-.766 1.093-.11.22-.436.108.22-.546.874-1.31.11-.548v-.983l-.22-1.092-.327-.656-.547-.656v-.218l-.437-.218-1.202-.875-1.64-.874-.326-.11-.11-.436z"
                        fill="#3D2744"></path>
                    <path
                        d="M242.13 101.098h1.312l4.59.437 3.498.438 2.623.437h1.64l.873-.22h.656l.22.22h.764l1.202-.328 1.75-.22-.11.22-2.514.547-.765.654h-1.094l-1.53.328-3.28.984-1.092.437-.328-.11.656-.327-.656.11-.328.327h-.655v-.22l1.093-.545 3.17-1.093.545-.22-2.293-.545-3.06-.437-5.355-.547-1.42-.11-.11-.218z"
                        fill="#587018"></path>
                    <path
                        d="M290 92.683h1.75l2.184.328 1.64.438v.218l-3.935.984-1.094.328-.983.11-.874-1.64-.22-.437 1.53-.327z"
                        fill="#A9C936"></path>
                    <path
                        d="M276.886 95.415h.327l.437 1.31.328.55-.11.545.22.437-.438 1.31-.874 1.75-.656.874h-.218v.22l-.765.656h-.22l.22-.656.437-.656.437-1.202.33-.656.218-1.093.218-.765v-.764l-.11-.22h-1.53l-.437-.436v-.22l-.33-.108.22-.22-.437-.327 2.405-.218.218.11.11-.22z"
                        fill="#9964A9"></path>
                    <path
                        d="m271.093 86.344.437.11.437.328.437.108v.656l-.11.328.11.22h-.218l-.11.983-.437.655-.11.11.22.11v.436l-.33.11-.546-.22v-.218h-.218l-.22.438-.436.327-.328.874h-.218l-.11-.547v-2.186l.546-1.53.328-.437.875-.437v-.22z"
                        fill="#A171B3"></path>
                    <path
                        d="M278.962 102.63h.328l.11.545-.33.983-.217.765h-.22l-.108.984.218.547-.984.328.11.328-.766.874-.11.218h-.436l-.22-.874v-1.202l.22-.984.546-.984.655-.764 1.202-.765z"
                        fill="#A171B3"></path>
                    <path
                        d="M269.672 109.186h.11l-.11.984-.765 3.06-.765 2.84-.547 2.077-.11.656-.545 2.405-1.202 3.606-1.42 4.372-.22.11.22-1.094 1.31-3.934.656-2.405.546-1.64.22-.545.108-.656v-1.858l-.983.218-.11-.328.984-.655.218-.11.546-1.75.547-3.17.22-.436v.765l.218.11.328-.766v-.766h.218v-.764h.328v-.328z"
                        fill="#587018"></path>
                    <path
                        d="m296.338 78.585.766.11-.11.436-.218-.108-.765.11-1.857.764-1.53.874-.874.438h-.33l-.11.327-1.42.984-1.53 1.31-1.858 1.75-.655.655-.218.437-.22-.656-.22-.218.548-.328 2.513-2.514 1.094-.874h.22v-.22l1.2-.764 1.53-.984 2.187-1.2.766-.11h1.092v-.22z"
                        fill="#594025"></path>
                    <path
                        d="m269.017 91.7.218.218.328.874.547.656.327.328-.765-.11.11.328.546.547.328.547v.766l-.22.327-.873-.11-.22-.217-.326.327v.438l-.438.108-.438-1.092-.11-.656v-.874l.438-1.42.547-.985z"
                        fill="#B4A2B9"></path>
                    <path
                        d="m251.75 80.88 1.092.218 5.136 1.53 4.7 1.202 1.967.328h.328v.22l-.22.108.985.328.11.22-.657-.11-.217-.11v.22l-1.64-.22-2.076-.546-3.716-1.202-3.387-.984-1.967-.765-.437-.437z"
                        fill="#597317"></path>
                    <path
                        d="m290.546 102.738.328.437.656.983.328.875.11.874.11.328 2.075-.22 1.858-.108h2.296l2.076.22 1.42.327v.11l-1.2-.11-2.077-.22h-2.186l-2.406.22-1.64.328h-.655V107l-.656-.218-.984-.547-.328.22.218-.657.328-.765h.22l.108-2.295z"
                        fill="#587317"></path>
                    <path
                        d="m249.782 69.077.436.218.875.875.874.764 1.31 1.203 2.625 2.622.874.765.218.437-.328.11.328.327v.326l-.546-.218-.874-.437-2.296-.764.11-.22.874-.217.22-.22v.22h.217l-.33-.548-.982-1.092-.765-.875-1.53-1.64-.983-1.092-.328-.546z"
                        fill="#596F18"></path>
                    <path
                        d="m257.213 99.787.984.11 1.31.545.44.328 2.075.438.874.218-.328.22-4.043.764-.22.11h-.764l-.327-.438.328-.328.11-.22v-1.42l-.437-.327z"
                        fill="#64891A"></path>
                    <path
                        d="M280.6 91.81h.766l-.437.327-.876.437-.655.764-.11.22.874.546-.11.983-.764.656-.656.11-.656-.328-.437-.875-.218.11.11-.874.437-.656.327-.11.437.11.22-.438.872-.655.875-.328z"
                        fill="#B7A7BC"></path>
                    <path
                        d="m271.53 103.066.547.546.765.656.983.437.546.11h2.078v-.33l.656-.436-.218.655-.328.765-.11.656v1.202l.438 1.42.655.875.657.765-.11.328-.546-.328-.764-.874-.656-1.203-.655-2.84h-.875l.547 2.076v.547l-.22.11-.436-1.75-.218-1.202-.546-.108-1.312-.765-.874-.655v-.656z"
                        fill="#594C1F"></path>
                    <path
                        d="M274.48 105.36h1.094l.437 2.077.33 1.093.546.984.327.437-.22.548-.654.873-.22.22-.874-3.06-.765-3.17z"
                        fill="#A9C936"></path>
                    <path
                        d="M287.05 110.06h.108l.11.874-.438 1.203-.764.983-.765.656-1.42.546-.546.11h-1.53l-1.312-.546-1.093-.984-.657-.875-.218-1.093h.218l.22.22h.108l.22.764.656.874.983.656 1.31.438h1.094l1.31-.438.985-.656.764-.874.546-1.312.11-.546z"
                        fill="#573F2C"></path>
                    <path
                        d="M273.934 84.814h.765l1.092.437.874.766.328-.437.11.327-.11.22h.22v.217l-.22.11.547.656.875.764.547 1.093.218 1.203-.11.764.984-.436.656-.11h.875l.11.218h-.766l-.876.438h-.328v.218l-.873.656-.766 1.093-.11.22-.436.108.22-.546.874-1.31.11-.548v-.983l-.22-1.092-.327-.656-.547-.656v-.218l-.437-.218-1.202-.875-1.64-.874-.326-.11-.11-.436z"
                        fill="#3E2845"></path>
                    <path
                        d="m279.508 84.158.438.11.328.328v.546l-1.203.765-.436.547-.656.436-.437-.218-.327-.328v-.218h-.22l.22-.656.546-.656.546-.328.874-.218.328-.11z"
                        fill="#B4A3BA"></path>
                    <path
                        d="m262.24 113.01.22.11-.33.546.438-.108-.546.546-1.42 1.202-1.203.984-2.624 2.404-1.967 1.968-.766.873-.328.22.218-.438.984-1.203 1.53-1.64 2.95-2.95.876-.765 1.31-1.202.657-.547z"
                        fill="#59661A"></path>
                    <path
                        d="m269.454 75.415.218.328.874 3.06.547 2.623.328 2.842.11.765 1.312-.328h1.31l-.108.328-1.093.218-1.092.33-1.202.983-.656.874-.546.22.11-.547.326-.656.984-.875.547-.22-.327-1.202-.437-3.388-.656-2.84-.546-2.077v-.438z"
                        fill="#575F1F"></path>
                    <path
                        d="m264.317 82.847.437.22 1.093.982 1.31 1.2.985 1.094.875.766.327.218-.11.546-.436-.218.328.437-.11 3.06-.11.218h-.217l-.548-3.496.11-.874-.656-.874-1.42-1.312-.766-.765-.875-.766-.218-.437z"
                        fill="#5C7C18"></path>
                    <path
                        d="m270.218 100.334.22.328v.764l-1.968-.218-1.42-.22h-4.81l-.327-.218 2.95-.218v-.11l5.355-.108z"
                        fill="#688C1C"></path>
                    <path
                        d="M300.93 111.37h.655l.218.22-1.64.11h-1.2v.218l.436.22 1.42 1.092 1.093.983 1.42 1.53.765.875v.328l-.874-.656-1.31-1.312-1.204-.984-1.53-1.31-.874-.657-.656-.11v-.108h1.093v-.22l2.186-.22z"
                        fill="#5A7617"></path>
                    <path
                        d="m275.137 79.787.218.327.547 1.86.437 2.512.218 1.093.655-.875.984-.765 1.42-.546h1.858l.656.108-.436.328-.874-.108-.11.108-1.31.22-1.313.655-.655.546-.22.44h-.218l-.218.436-.765-.547.22-.11-.328-1.748-.437-2.187-.328-1.31v-.438z"
                        fill="#573F27"></path>
                    <path
                        d="m264.317 83.394.437.218 1.748 1.64.328.983.875.765.437.218v.22l-1.202.218h-.656v-.984l-.655-.983-.548-.44-.22-.217.11-.22.766.11-.984-.327-.328-.22h.547l-.765-.327.327-.22-.218-.436z"
                        fill="#64891A"></path>
                    <path
                        d="m276.886 114.104.218.437.655 2.296 1.53 6.12.11.984-.22-.218-1.64-5.793-.982-3.17.108-.438.22-.218z"
                        fill="#597417"></path>
                    <path
                        d="m266.83 116.508.22.11-.328.328.764-.328.11 1.967-.438 1.75-.546 1.747-1.75 5.464-.545 1.64-.22.11.22-1.094 1.312-3.934.654-2.405.546-1.64.22-.545.108-.656v-1.858l-.983.218-.11-.328.765-.546z"
                        fill="#586F18"></path>
                    <path
                        d="m268.36 109.295.33.11-2.406 1.42-1.75 1.42-1.638 1.203-.328.218-.546.11.22-.546.108-.328 2.076-1.53.22-.22.545-.108 1.75-.984.546-.11v-.218l.875-.437z"
                        fill="#637B1C"></path>
                    <path
                        d="m263.99 129.404.108.438-.874 2.513-1.202 3.06-.765 1.858-.22.984v.765l-.327-.22v-1.2h.22l.108-.766.984-2.514.984-2.732.546-1.858.437-.328z"
                        fill="#586719"></path>
                    <path
                        d="m244.535 106.016.328.11-.874.328-4.044 1.31-3.388.985-1.968.545-.437-.11 8.853-2.95.218.11 1.31-.33z"
                        fill="#5B691B"></path>
                    <path
                        d="M273.825 96.836h.656l-.218.438-.874 1.2-.11.985-.218.327-.546-.11-.328-.764.11-.984.982-.876.547-.218z"
                        fill="#FDFDFD"></path>
                    <path
                        d="M299.4 98.585h1.2v.11l-4.042.764-2.624.654-2.076.656-.875.11.22-.218.436-.22.983-.108v-.22l.327-.108.438-.438 5.137-.874.874-.11z"
                        fill="#597218"></path>
                    <path
                        d="M291.42 81.317h.547l-.546.546-1.31.984-1.53 1.31-.984.985-.874.765-.766.656h-.218l.11-.437 1.638-1.64.875-.764 1.203-1.093 1.858-1.313z"
                        fill="#A8C835"></path>
                    <path
                        d="m271.64 87.546.327.328.11.328v.875l-.438.655-.11.11.22.11v.436l-.33.11-.546-.22-.218-.546v-.983l.546-.876.437-.328z"
                        fill="#FBFBFB"></path>
                    <path
                        d="M267.923 113.338h.11l-.11 1.203-.546 1.75-1.31.764.217-.436.328-.765.328-1.312.874-1.092.11-.11zm-1.967 3.716.328.22-.765.546-.33-.11.548-.546.218-.11z"
                        fill="#64891A"></path>
                    <path
                        d="m242.13 104.923 1.422.11 2.295.218.765.22-.437.22-1.312.436-1.967.328.11-.328.328-.22.108-.436-1.31-.437v-.11z"
                        fill="#668A1A"></path>
                    <path
                        d="m279.07 111.153.876.11.546.218v.657l.328.546.983.655.328.11-.108.328-.765-.11-.875-.436-.656-.547-.655-.984v-.547z"
                        fill="#B29EB9"></path>
                    <path
                        d="m271.53 103.066.547.546.765.656.983.437.546.11h2.078v-.33l.656-.436-.218.655-.328.765-.11.656v1.202l.438 1.42.655.875.547.655-.437-.218-.874-.983-.546-1.312v-2.186l.11-.438h-2.624l-1.312-.765-.874-.655v-.656z"
                        fill="#3C2743"></path>
                    <path
                        d="M287.05 110.06h.108l.11.874-.438 1.203-.764.983-.765.656-1.42.546h-.766l-.655-.218v-.11l1.31-.218 1.312-.546 1.093-.984.547-1.093.327-1.093z"
                        fill="#4F322C"></path>
                    <path
                        d="m280.82 83.612.983.11.11-.11.874.11.765.327.437.436.545.328.766.765.22.436.218.656.218.546-.11.547-.218-.11-.327-1.2-.655-.876-.547-.438-.874-.437-1.64-.765-.764-.218v-.11z"
                        fill="#402B40"></path>
                    <path
                        d="m265.956 117.382.22.11-.547.437-1.64.983-1.86 1.42-1.638 1.53-1.53 1.64-1.203 1.53-.766 1.093-.108-.22.764-1.2 1.203-1.422.765-.874 2.185-2.186 1.53-1.202 1.75-1.312.546-.11.326-.218z"
                        fill="#595C1C"></path>
                    <path
                        d="M276.886 95.415h.327l.437 1.31.328.55-.22.545-.217-.11v-.328h-.218l-.218-.436-.438-.11-.436-.437-.875-.33-.984-.108-.217-.22 2.405-.217.218.11.11-.22z"
                        fill="#70417E"></path>
                    <path
                        d="M265.847 100.99h2.295l.328.108 2.076.22v.327l.22.11v.218l.327.11.437.764.11.547-.22.218-.655-.983-.328-.876-2.514-.328h-1.31l-2.078.22v-.22l1.203-.328.11-.11z"
                        fill="#597517"></path>
                    <path
                        d="M273.388 118.257h.11v5.027l-.328 3.498-.328 2.732-.22.328.11-2.077.438-4.48.108-4.59.11-.438z"
                        fill="#5A7019"></path>
                    <path
                        d="m272.077 104.05 1.2.764.44.328-1.094-.22-1.202 1.204-.874 1.092-.546 1.75h-.437l.22-.766.327-.11v-.436l-.22.218-.108-.546.983-1.093.546-.656.548-.547.22-.437v-.547z"
                        fill="#586919"></path>
                    <path
                        d="M242.13 101.098h1.312l4.59.437 3.498.438 1.42.328v.11h-.873l-3.06-.437-5.355-.547-1.42-.11-.11-.218z"
                        fill="#595D1D"></path>
                    <path
                        d="M259.18 116.07h.22l-.22.438-.874.766-1.64 1.53-1.857 1.858-.766.873-.328.22.218-.438.984-1.203 1.53-1.64 1.858-1.856.437-.11.437-.437z"
                        fill="#585E1B"></path>
                    <path
                        d="m256.338 71.262.22.22.983 3.06.33 1.638.217.766 1.093.983 2.186 1.638.11.328-.438-.218-1.202-.984-1.53-1.093-.547-.436-.547-.656.11-.328h.218l-.327-1.64-.875-2.95v-.328z"
                        fill="#5A6E19"></path>
                    <path
                        d="m263.99 82.738.436.218.765.874.876.766.984.983.873.764.438.656v.546l-.327-.328-.656-.328-.765-.874-.328-.874-.765-.765-.875-.765-.656-.437v-.437z"
                        fill="#597617"></path>
                    <path
                        d="M273.934 84.814h.765l1.092.437.874.766.328-.437.11.327-.11.22h.22v.217l-.22.11.656.764h-.328l-.984-.764-1.748-.984-.546-.22-.11-.436z"
                        fill="#412C40"></path>
                    <path
                        d="m292.842 99.678.328.11-.22.326h-.327v.22l-.984.218-.438.328-.328.218-.546.22-.438-.11-.108-.656H290v-.218l2.842-.656z"
                        fill="#628619"></path>
                    <path
                        d="m268.25 93.994.33.328.11.22.545.108.11.984-.22.546-.11.438-.436.108-.438-1.092-.11-.656v-.874l.22-.11z"
                        fill="#9863A8"></path>
                    <path
                        d="m288.47 93.994.328.328.218.875v2.295l-.655 1.53-.327.546.218.438 1.094.764.328.547-.11.328-.655-.875-.984-.656-.655-.218.11-.328.545-.546.438-.765.33-1.31v-1.64l-.22-.875v-.438z"
                        fill="#3C2744"></path>
                    <path
                        d="m280.054 90.934.438.11-.218.218.108.437.22.218-1.094.437-.765.656-.11.22h-.655l.22-.547.764-.984.546-.438h.218v-.218l.328-.11z"
                        fill="#A06EB2"></path>
                    <path
                        d="m264.317 82.847.437.22 1.093.982 1.31 1.2.985 1.094.875.766.327.218-.11.546-.436-.218-.547-.656-.654-.874-1.42-1.312-.766-.765-.875-.766-.218-.437z"
                        fill="#A9C936"></path>
                    <path
                        d="m262.24 73.12.22.328.982 3.278.875 3.716v.875l-.22-.22-1.09-4.59-.766-2.95v-.437z"
                        fill="#5A611C"></path>
                    <path
                        d="m267.596 94.432.327.11.22 1.53h.218l.766 1.31 1.202 1.203.11.218v.984h-.11l-.11-.765-1.31-1.202-.766-.984-.437-1.202-.11-1.202z"
                        fill="#544126"></path>
                    <path
                        d="m296.338 78.585.766.11-.11.436-.218-.108-.765.11-1.857.764-.437.218h-.765l.11-.436 1.75-.875h1.528v-.218z"
                        fill="#5C402B"></path>
                    <path
                        d="m288.033 99.787.546.22.983.763.11.328.327.11.546 1.202v2.295l-.218.328-.11-.22-.108-1.31-.328-1.42-.328-.875-.11-.438-.437-.218-.874-.656v-.11z"
                        fill="#564323"></path>
                    <path
                        d="M296.338 78.257h.766l.437.218.11.22v.873l-1.312.656v-.328l.656-.765.11-.436h-.656l-.328.22-.874-.11-.11.218-.11-.328 1.312-.437z"
                        fill="#5B3D2A"></path>
                    <path
                        d="m265.52 123.722.218.108-.11.766-1.42 4.37v.548h-.438l.11-.765 1.202-3.936.328-.984.11-.108z"
                        fill="#597717"></path>
                    <path
                        d="M296.01 105.907h2.296l2.076.22 1.42.327v.11l-1.2-.11-2.077-.22h-2.186l-2.624.11.437-.328 1.858-.11z"
                        fill="#5B611C"></path>
                    <path
                        d="m278.415 104.377.328.11-.11.764-.327.766-.765.11-.218-.22v-.764l.765-.656.328-.11z"
                        fill="#FDFDFD"></path>
                    <path
                        d="m254.37 74.65.11.22h.22l.11-.22.436.22.22.436.654.656v.218l-1.202-.327-1.64-.547.11-.22.874-.217.11-.22z"
                        fill="#638819"></path>
                    <path
                        d="M274.7 95.962h.655l1.093.437.328.546-.437.108h-1.203l-.438-.436v-.22l-.33-.108.33-.328z"
                        fill="#9A65AA"></path>
                    <path
                        d="M266.612 121.317h.11l-.11.765-1.75 5.464-.545 1.64-.22.11.22-1.094 1.312-3.934.326-1.202.22-.875h.218l.218-.873z"
                        fill="#594D1F"></path>
                    <path
                        d="m296.886 78.803.108.328-2.732 1.204-.984.218-.436.11.328-.328 1.748-.875 1.42-.547.548-.11z"
                        fill="#A9C936"></path>
                    <path
                        d="M263.114 100.66h3.608l1.64.22.545.11v.108l-1.857-.11h-4.81l-.327-.218 1.2-.11z"
                        fill="#A9C936"></path>
                    <path
                        d="m268.907 91.59.11.22-.656 1.42-.218.874v.874l.11 1.093-.22-.327-.218-.984.11-.22h-.22v-.982l.438-1.312.328-.437.437-.22z"
                        fill="#44313C"></path>
                    <path
                        d="M285.956 88.858h.11v.874l-.765 1.64.766.11.546.217.546.546.22.328-.548-.22-1.092-.327v-.218h-.22v-.33h-.327l-.108-.327.11-.328.11-.547.436-1.2.218-.22z"
                        fill="#563638"></path>
                    <path
                        d="m259.29 78.803.546.22 1.42 1.2.875.985-.108.218-.656-.218-.874-.874-.766-.875-.436-.547v-.11z"
                        fill="#A9C936"></path>
                    <path
                        d="m272.295 99.24.22.438.545.11-.11.654-.218.438-.437.11-.546-.328v-.984l.327-.328.218-.11z"
                        fill="#B6A6BB"></path>
                    <path
                        d="m262.35 133.666.218.11-.11.546-1.2 2.952-.22.983v.765l-.328-.22v-1.2h.22l.108-.766.984-2.514.328-.656z"
                        fill="#595C1C"></path>
                    <path
                        d="m249.126 97.274 1.092.108 3.388.765.22.22-.22.218-.874-.11-3.606-1.093v-.108z"
                        fill="#62761C"></path>
                    <path
                        d="M299.4 98.585h1.2v.11l-4.042.764-.875.218h-.765l.437-.22.547-.108v-.22l3.497-.545z"
                        fill="#59591C"></path>
                    <path
                        d="m267.596 85.47.874.656 1.093.656h.22l-.33 1.092-.327.328-.547-.546.11-.22.545.438.11-.546-.438-.218-1.202-1.094-.22-.437.11-.11z"
                        fill="#5A7718"></path>
                    <path
                        d="m267.596 118.585.327.437.875 2.076.546 2.077.22 1.64v.983h-.11l-.547-3.28-.656-2.076-.654-1.42v-.437z"
                        fill="#5A7318"></path>
                    <path
                        d="M276.12 105.69h.11l.108 2.075.548 1.312.983 1.093.327.218-.11.328-.546-.328-.764-.874-.656-1.203-.11-.436v-1.31l.11-.875z"
                        fill="#584320"></path>
                    <path
                        d="M264.863 100.88h2.186v.11l-1.203.108-.328.22-.547.108h-1.31l-.33-.218-.874-.11v-.11l2.403-.108z"
                        fill="#638819"></path>
                    <path
                        d="m275.137 79.787.218.327.547 1.86.437 2.512.108 1.203-.437-.11.22-.11-.328-1.748-.437-2.187-.328-1.31v-.438z"
                        fill="#5B7219"></path>
                    <path
                        d="m261.147 120.88.22.11-1.53 1.53-.766.874-1.092 1.31-.984 1.422-.108-.22.764-1.2 1.203-1.422.765-.874 1.53-1.53z"
                        fill="#595B1C"></path>
                    <path
                        d="m272.077 104.05 1.2.764.44.328-1.094-.22-1.093 1.094-.328-.11.11-.327.546-.547.22-.437v-.547z"
                        fill="#58621B"></path>
                    <path
                        d="m290.765 111.153.546.437 1.204 1.968 1.092 1.857.328.656-.11.22-1.638-2.732-.875-1.312-.545-.875v-.217z"
                        fill="#5B6C1A"></path>
                    <path
                        d="m244.535 106.016.328.11-.874.328-1.422.436-.765.11-.983.328h-.438v-.218l1.86-.656.764-.22.218.11 1.31-.328z"
                        fill="#5A681A"></path>
                    <path
                        d="m295.574 93.448.546.11.218.218-2.185.437-2.95.765-.22-.11.984-.436 3.17-.766h.437v-.218z"
                        fill="#5A651B"></path>
                    <path
                        d="m271.202 85.36.22.11-.33.546-.327.11-.22.546-.545.765-.546.22.11-.547.326-.656.984-.875.328-.22z"
                        fill="#553528"></path>
                    <path
                        d="M273.17 124.05h.108v1.857l-.436 3.607-.22.328.11-2.077.328-3.17.11-.546z"
                        fill="#5A5B1D"></path>
                    <path
                        d="m262.678 81.426.764.437.766.656v.327l-.22-.11-.108.33-1.093-.766-.22-.11-.108-.436.218-.328z"
                        fill="#65891A"></path>
                    <path
                        d="M287.05 110.06h.108l.11.874-.438 1.203-.764.983-.437.328.217-.546h.22l.327-.984.546-1.312.11-.546z"
                        fill="#553525"></path>
                    <path
                        d="m271.093 86.344.437.11.328.328.11.436h-.33v.22l-.873.218-.22-.766.33-.327h.218v-.22z"
                        fill="#9964A9"></path>
                    <path d="m278.197 119.678.328.11.874 3.714-.11.438-.765-2.514-.328-1.202v-.546z"
                        fill="#5A5F1C"></path>
                    <path d="m291.093 103.612.328.328.438 1.093.11.765h-.547l-.327-.656v-1.53z"
                        fill="#64891A"></path>
                    <path
                        d="M270.874 104.923v.328l-.656.876-.983 1.42-.874.765-1.42.657v-.218l1.42-.767.766-.655 1.202-1.858.546-.547z"
                        fill="#597717"></path>
                    <path
                        d="m257.104 76.508.437.218.22.438.437.218.656.547-.22.436-.546-.22-.874-1.2-.11-.438z"
                        fill="#A9C936"></path>
                    <path
                        d="M256.12 118.803h.328l-.218.438-1.42 1.422-.766.873-.328.22.218-.438.984-1.203 1.202-1.31z"
                        fill="#595A1C"></path>
                    <path
                        d="m277.65 117.054.22.22.545 2.076-.11.437h-.218l-.655-2.186.11-.436.108-.11z"
                        fill="#597218"></path>
                    <path d="M274.48 105.25h1.75l-.22 2.187h-.108l-.437-1.967-.984-.11v-.11z"
                        fill="#597717"></path>
                    <path
                        d="M279.618 83.394h1.857l.656.108-.436.328-.874-.108-.11.108-1.31.11.108-.438.11-.108z"
                        fill="#543D27"></path>
                    <path d="m274.37 103.394.11.328-.436.983-.766-.11-.218-.218.874-.765.437-.218z"
                        fill="#9863A8"></path>
                    <path d="m262.24 73.12.22.328.982 3.278-.108.656-.22-.436-.873-3.388v-.438z"
                        fill="#5A641B"></path>
                    <path
                        d="m286.83 99.896.328.11-.328.546-1.857.765-.765.11.327-.33 1.312-.545.983-.656z"
                        fill="#3C2744"></path>
                    <path
                        d="m242.13 106.782.22.108-.984.438-1.858.546h-.983l.328-.218 1.2-.438h.767l1.31-.436z"
                        fill="#59631B"></path>
                    <path
                        d="m270.437 101.317.11.328.218.11v.218l.328.11.437.764.11.547-.22.218-.655-.983-.328-.876-.765-.22v-.108l.765-.11z"
                        fill="#544525"></path>
                    <path
                        d="m296.338 78.585.766.11-.11.436-.218-.108-.765.11-1.857.764-.655.218-.11-.218.546-.218h.328v-.22l1.312-.545.546-.11h.218v-.218z"
                        fill="#597817"></path>
                    <path
                        d="m302.022 114.87.437.327h.327l1.42 1.53-.218.22-1.422-1.313-.546-.547v-.218z"
                        fill="#585A1C"></path>
                    <path
                        d="m268.36 109.295.33.11-2.406 1.42-.546.437-.22-.11v-.327l1.422-.765.546-.11v-.218l.875-.437z"
                        fill="#586619"></path>
                    <path
                        d="M249.126 105.907h.218l-.11.328-1.2.983-.876.875-1.092.874-.328-.11 1.092-.873 1.312-1.202.984-.875z"
                        fill="#59631B"></path>
                    <path
                        d="m271.53 103.066.547.546.765.656.983.437-.11.437-1.31-.765-.875-.655v-.656z"
                        fill="#402B3E"></path>
                    <path d="m296.558 110.06 1.2.765.767.546v.22l-.766-.11-1.312-1.202.11-.218z"
                        fill="#63871A"></path>
                    <path d="m277.322 105.907.765.22.11-.22.437.11.11.437-.875.328-.548-.438v-.437z"
                        fill="#B7A7BC"></path>
                    <path d="m290 102.52.546.218v1.967l-.218.328-.11-.22-.108-1.31-.11-.984z"
                        fill="#50322C"></path>
                    <path
                        d="M251.967 103.83h.22v.22l-.876.436-.764.22-.328.327h-.655v-.22l1.093-.545 1.31-.438z"
                        fill="#628719"></path>
                    <path
                        d="M280.71 90.388h.875l.11.218h-.766l-.876.438h-.328v.218l-.436.22.11-.657.654-.327.656-.11z"
                        fill="#593734"></path>
                    <path
                        d="m271.967 86.782.437.108v.656l-.11.328.11.22-.437.108-.328-.546-.22.11-.218-.22.437-.11v-.218h.327v-.436z"
                        fill="#A57AB6"></path>
                    <path
                        d="M268.907 88.75h.11v2.403l-.11.218h-.218l-.33-1.856v-.437h.22l.218 1.2.11-1.528z"
                        fill="#59681A"></path>
                    <path
                        d="m276.12 112.246.218.22.22.982v.218l.328.11-.11.546h-.328l-.437-1.31.11-.766z"
                        fill="#58481F"></path>
                    <path
                        d="M269.672 109.186h.11l-.11.984-.546 2.185h-.22l.22-1.967.218-.11v-.764h.328v-.328z"
                        fill="#58571D"></path>
                    <path
                        d="m268.25 93.994.33.328.11.22.545.108v.11l-.656.218.11.22-.22.108-.22.437-.217-.765v-.874l.218-.11z"
                        fill="#9B6AAD"></path>
                    <path
                        d="m285.19 91.262 1.422.437.546.546.22.328-.548-.22-1.092-.327v-.218h-.22v-.33h-.327v-.218z"
                        fill="#5E3D49"></path>
                    <path
                        d="m276.886 86.235.546.22.874.982.437.765-.11.22-.327-.548-.547-.437v-.22l-.328-.107-.546-.656v-.22z"
                        fill="#744882"></path>
                    <path
                        d="M264.863 111.59h.22l-.11.328-1.967 1.42h-.328l.11-.436.436-.11 1.093-.874.546-.328z"
                        fill="#595D1C"></path>
                    <path
                        d="m263.99 129.404.108.438-.764 2.185-.22.11.328-1.203.11-.546-.11-.218.22-.547.327-.22z"
                        fill="#5A601C"></path>
                    <path d="M264.317 127.328h.328l-.328 1.31-.11.876h-.437l.11-.765.437-1.422z"
                        fill="#5B7A17"></path>
                    <path d="m274.81 107.874.217.22.22-.11.327 1.31v.548l-.437-.11-.328-1.42v-.438z"
                        fill="#595F1C"></path>
                    <path
                        d="m263.99 82.738.436.218.765.874.876.766.436.546-.436-.22-1.53-1.42-.547-.327v-.437z"
                        fill="#5B7B17"></path>
                    <path
                        d="m266.83 116.508.22.11-.328.328.764-.328.11 1.967h-.22l-.108-1.64-.874.437-.22-.108v-.328l.656-.438z"
                        fill="#58541D"></path>
                    <path d="m293.498 80.334.218.218-1.75.874-.545-.11.33-.218.873-.436.875-.328z"
                        fill="#799D22"></path>
                    <path d="m256.666 102.19.438.11v.438h-1.202l-.875-.11v-.11l1.64-.327z"
                        fill="#64891A"></path>
                    <path
                        d="m258.634 99.568.656.11 1.64.764.764.11-.11.328-1.31-.328v-.218l-.656-.22-.984-.436v-.11z"
                        fill="#8DAF2A"></path>
                    <path d="m275.902 82.956.218.11.328 2.623-.437-.11.22-.11-.328-1.748v-.766z"
                        fill="#59661A"></path>
                    <path
                        d="m263.334 119.022.328.11-1.53 1.202-.657.546-.218-.11 1.202-1.092.874-.656z"
                        fill="#59611B"></path>
                    <path
                        d="m292.842 99.678.328.11-.22.326h-.327v.22l-.656.108v-.218l-.437-.218 1.312-.328z"
                        fill="#5C7C18"></path>
                    <path
                        d="m296.776 79.13.218.11-.656.766h-.327v.218l-.327.11-.11-.438.438-.437.766-.33z"
                        fill="#587018"></path>
                    <path
                        d="M261.038 136.836h.22l-.11.874-.11.547v.765l-.328-.22v-1.2h.22l.108-.766z"
                        fill="#5A621B"></path>
                    <path d="M299.4 98.585h1.2v.11l-2.403.436-.438-.108v-.22l1.64-.217z"
                        fill="#5A641B"></path>
                    <path
                        d="m289.344 82.63.218.108-1.748 1.64h-.328l.22-.438.873-.765.327-.11.437-.436z"
                        fill="#597517"></path>
                    <path
                        d="m292.842 79.787.218.11-.11.437h-.218l-.328.328-.874.218.22-.438 1.092-.655z"
                        fill="#593A26"></path>
                    <path d="m268.47 87.437.546.547.11.327-.22 1.204-.217-.437-.22-1.203v-.437z"
                        fill="#A9C936"></path>
                    <path d="m252.95 102.3 1.203.11.656.22-.44.217-1.31-.218-.437-.22.328-.11z"
                        fill="#5C7A18"></path>
                    <path d="M250.328 101.973h1.202l1.42.328v.11h-.873l-1.75-.328v-.11z"
                        fill="#5A561E"></path>
                    <path
                        d="m293.388 100.006.328.108-1.093.438-1.202.328-.437-.11.656-.328 1.748-.436z"
                        fill="#59551E"></path>
                    <path
                        d="m253.825 98.257.656.11v.327l.438.11h-.22l-.108.218-1.092-.328-.11-.328.437-.11z"
                        fill="#627C1B"></path>
                    <path
                        d="m285.847 85.36.328.22-.11.436-.218.22-.218.436-.22-.656-.22-.218.548-.328.11-.11z"
                        fill="#58501E"></path>
                    <path
                        d="m293.17 80.006.328.218-.875.546-.984.438-.22-.22.657-.326.546-.11.11-.328.437-.218z"
                        fill="#597218"></path>
                    <path
                        d="m259.836 115.197.11.328-.328.11-.11.545-.437.11-.436.436-.22-.108.985-1.093.436-.328z"
                        fill="#597517"></path>
                    <path
                        d="m271.202 85.36.22.11-.33.546-.327.11-.11.218-.437.11-.436.328.218-.438.874-.765.328-.22z"
                        fill="#585A1C"></path>
                    <path
                        d="m263.552 130.278.11.328-.438 1.312-.11.437-.218-.11.218-1.092.328-.765.11-.11z"
                        fill="#587617"></path>
                    <path
                        d="m290 105.69.11.326.874.438.546.11.11.436-.656-.218-.984-.547-.328.22.218-.657.11-.11z"
                        fill="#583723"></path>
                    <path d="m252.623 98.038.983.11.22.218-.22.22-.874-.11-.546-.22.437-.218z"
                        fill="#5B5F1D"></path>
                    <path
                        d="M275.355 109.623h.328l-.11.983.22.656-.11.328-.218-.437-.22-.983.11-.547z"
                        fill="#597517"></path>
                    <path d="M294.153 106.016h.984l1.202.11v.11l-2.624.108.437-.328z" fill="#5B631C"></path>
                    <path d="m295.574 93.448.546.11.218.218-1.967.328-.108-.218.875-.22h.437v-.218z"
                        fill="#5B7119"></path>
                    <path d="m282.13 113.558 1.094.108.11.328h-1.093l-.437-.218.328-.218z"
                        fill="#8F5C9F"></path>
                    <path d="M275.574 110.06h.218l.22.874v.875l-.33-.33-.108-.764-.11-.546.11-.11z"
                        fill="#58491F"></path>
                    <path d="M268.58 88.42h.11l.217 1.094v1.202l-.218-.438-.22-1.2v-.548l.11-.11z"
                        fill="#64891A"></path>
                    <path d="M272.842 84.705h1.31l-.108.328h-1.312l-.437-.22.547-.108z"
                        fill="#585120"></path>
                    <path d="m259.29 78.147.436.22 1.75 1.31v.22l-.438-.22-1.202-.983-.546-.547z"
                        fill="#59651A"></path>
                    <path
                        d="m286.175 112.246.11.22-.22.436h-.218l-.218.546-.44-.11-.108.22h-.22v-.22l.876-.655.437-.437z"
                        fill="#3D2742"></path>
                    <path d="M276.12 105.69h.11l.108 2.403-.327-.22v-1.31l.11-.874z" fill="#583C22"></path>
                    <path
                        d="m288.033 99.787.546.22.983.763.22.547-.33-.11-.11-.437-.436-.218-.874-.656v-.11z"
                        fill="#573623"></path>
                    <path d="m257.87 76.836.764.656.765.546-.22.22-.983-.766-.438-.328.11-.328z"
                        fill="#5A7917"></path>
                    <path
                        d="m262.787 112.792.437.11-.218.11-.22-.22zm-.437.11.546.218-.218.546-.656.11.22-.546.108-.328z"
                        fill="#63821B"></path>
                    <path d="m254.37 102.956.44.11-.766.218v.218l-.874.22h-.547l.328-.22 1.42-.546z"
                        fill="#64891A"></path>
                    <path d="m251.75 80.88 1.092.218.436.22-.218.217-.546-.11-.765-.436v-.11z"
                        fill="#59631B"></path>
                    <path
                        d="M266.612 121.317h.11l-.11.765-.437 1.312-.22-.11.22-1.093h.22l.217-.873z"
                        fill="#58491F"></path>
                    <path d="m263.334 77.054.218.11.218.874v.765l-.218-.11-.218-.873v-.766z"
                        fill="#59581D"></path>
                    <path d="m271.64 85.142.218.437-1.093.874-.11-.328.547-.328.22-.437.217-.218z"
                        fill="#4F322D"></path>
                    <path d="M265.956 123.284h.11l-.11.874-.327 1.093-.22-.108.437-1.748.11-.11z"
                        fill="#59501E"></path>
                    <path d="m262.24 113.01.22.11-.33.438h-.217v.218l-.766.546v-.328l1.094-.983z"
                        fill="#584E1E"></path>
                    <path d="M290.546 111.153h.22l.218.437-.438.765-.328-.11.328-.983v-.11z"
                        fill="#628619"></path>
                    <path d="m290.874 109.623.22.328.327.656-.11.22h-.436l-.11-.328.11-.875z"
                        fill="#64891A"></path>
                    <path d="m268.36 109.295.33.11-1.532.873h-.218l.11-.327h.436v-.218l.875-.437z"
                        fill="#59601B"></path>
                    <path d="m241.694 106.672.22.218-1.094.438h-.438v-.218l1.312-.438z"
                        fill="#5E7F18"></path>
                    <path d="m290.874 100.66.328.11v.22l-.874.327-.438-.11.11-.218.874-.33z"
                        fill="#597617"></path>
                    <path
                        d="m262.568 81.208.438.218.328.437-.438-.218h-.218l-.11.437h-.218l-.11-.656.328-.218z"
                        fill="#587617"></path>
                    <path d="m303.224 115.853.765.655.218.328h-.328l-.766-.656.11-.327z"
                        fill="#5B5F1D"></path>
                    <path d="m272.732 104.268 1.093.437-.11.437-1.092-.656.11-.218z" fill="#3E2840"></path>
                    <path d="m249.126 97.274 1.092.108.875.22v.108h-.983l-.984-.328v-.108z"
                        fill="#59561D"></path>
                    <path d="m262.35 133.666.218.11-.11.546-.217.547h-.218l.11-.876.218-.328z"
                        fill="#59551E"></path>
                    <path d="m264.317 123.612.11.437-.438.436v-.546l.327-.328z" fill="#90B22C"></path>
                    <path d="m237.104 108.202.546.11-.437.218-.655.22h-.438v-.22l.984-.328z"
                        fill="#5A651B"></path>
                    <path
                        d="m266.066 84.158.436.22.766.764.328.22v.217l-.438-.22-.874-.874-.218-.11v-.218z"
                        fill="#597218"></path>
                    <path d="M294.81 78.803h.764v.22l-.656.327-.328-.11-.11-.327.33-.11z"
                        fill="#615032"></path>
                    <path d="m266.722 120.662.218.218-.11.655-.218.11-.218.546-.22-.108.548-1.42z"
                        fill="#587118"></path>
                    <path d="M267.158 119.35h.11l-.11.984-.218.546h-.11l.11-1.093.218-.437z"
                        fill="#585B1C"></path>
                    <path d="m265.956 117.054.328.22-.765.546-.33-.11.548-.546.218-.11z"
                        fill="#5C7B18"></path>
                    <path d="m277.213 109.95.22.22-.657 1.092h-.328l.218-.437.547-.874z"
                        fill="#59691A"></path>
                    <path d="m285.41 86.563.328.11.218.545-.11.547-.217-.11-.22-1.092z"
                        fill="#3C2744"></path>
                </g>
            </g>
        </g>
    </g>
</svg>