<svg xmlns="http://www.w3.org/2000/svg" viewBox="100 100 100 100" width="100px" height="100px">
    <g transform="matrix(0.769245, 0, 0, 0.769245, 26.976695, 8.13226)">
        <g>
            <path fill="#9BD069"
                d="M95.025 136.997a4.91 4.91 0 0 1 4.455-5.865c10.16-.744 32.685-.747 48.659 11.386 6.107 4.638 8.913 10.18 10.059 15.23 3.281 14.463-6.96 27.952-21.777 28.671-5.17.252-11.263-.963-17.37-5.602-15.976-12.133-22.016-33.832-24.026-43.82z"></path>
            <path fill="#7DBE3B"
                d="M158.198 157.747c-1.146-5.049-3.951-10.59-10.059-15.23-15.974-12.132-38.498-12.128-48.66-11.385a4.91 4.91 0 0 0-4.454 5.865c.131.656.28 1.362.449 2.112 11.015-.526 31.4.31 46.179 11.535 6.107 4.639 8.913 10.18 10.058 15.23 1.255 5.528.533 10.913-1.664 15.497 6.75-5.35 10.27-14.283 8.151-23.624z"></path>
        </g>
        <g>
            <path fill="#9BD069"
                d="M224.843 149.428a4.043 4.043 0 0 0-3.647-4.847c-8.366-.65-26.915-.737-40.117 9.195-5.047 3.797-7.378 8.352-8.34 12.506-2.757 11.899 5.627 23.045 17.827 23.693 4.258.227 9.28-.752 14.327-4.55 13.2-9.931 18.257-27.78 19.95-35.997z"></path>
            <path fill="#7DBE3B"
                d="M221.196 144.58a82.84 82.84 0 0 0-4.015-.212c-2.002 8.773-7.22 25.026-19.588 34.33-5.047 3.798-10.068 4.777-14.326 4.55-2.966-.157-5.705-.935-8.114-2.193 3.189 5.057 8.728 8.565 15.413 8.92 4.258.227 9.28-.752 14.327-4.55 13.2-9.932 18.257-27.78 19.95-35.997a4.044 4.044 0 0 0-3.647-4.848z"></path>
        </g>
        <g>
            <path strokelinecap="round" strokelinejoin="round" stroke="#7DBE3B" strokewidth="10"
                d="M121.464 147.767s45.026 28.191 41.089 72.606" fill="none"></path>
            <path strokelinecap="round" strokelinejoin="round" stroke="#7DBE3B" strokewidth="10"
                d="M203.425 162.603s-42.736 13.793-40.627 59.268" fill="none"></path>
        </g>
        <g>
            <path fill="#C6865C"
                d="M207.487 244.05a5.436 5.436 0 0 0-.062-.07c-3.498-3.954-8.288-5.557-12.835-4.81a22.142 22.142 0 0 0-2.883-4.142c-3.113-3.518-7.007-5.611-11.051-6.284-4.363-5.781-10.852-9.452-18.103-9.452-7.25 0-13.74 3.67-18.103 9.452-4.043.673-7.938 2.766-11.05 6.284a22.13 22.13 0 0 0-2.884 4.141c-4.546-.746-9.336.857-12.835 4.81l-.061.07c-.874 1-1.243 2.23-1.212 3.429h92.29c.031-1.2-.337-2.43-1.21-3.429z"></path>
            <path fill="#B16E3D"
                d="M207.487 244.05a5.51 5.51 0 0 0-.062-.07c-3.499-3.954-8.289-5.557-12.835-4.81a22.124 22.124 0 0 0-2.884-4.142c-3.112-3.517-7.006-5.61-11.05-6.284-4.363-5.781-10.852-9.452-18.103-9.452-1.702 0-3.362.202-4.963.586 4.784 1.149 9.034 3.924 12.281 7.786.578.687 1.372 1.15 2.243 1.367 3.543.884 6.912 2.882 9.668 5.997a21.607 21.607 0 0 1 1.66 2.132 4.171 4.171 0 0 0 3.433 1.831c3.846.01 7.69 1.672 10.625 4.988l.062.07c.874.999 1.242 2.23 1.212 3.428h9.924c.031-1.199-.337-2.429-1.21-3.428z"></path>
        </g>
        <g>
            <path fill="#804F2B"
                d="M217.948 249.433H104.732a1.954 1.954 0 0 1 0-3.909h113.216c1.506 0 2.446 1.628 1.694 2.932a1.957 1.957 0 0 1-1.694.977z"></path>
        </g>
    </g>
</svg>