<svg xmlns="http://www.w3.org/2000/svg" xmlns:xlink="http://www.w3.org/1999/xlink"
    viewBox="0 0 512 512" width="512" height="512" preserveAspectRatio="xMidYMid meet"
    style="width: 100%; height: 100%; transform: translate3d(0px, 0px, 0px); content-visibility: visible;">
    <defs>
        <clipPath id="__lottie_element_22">
            <rect width="512" height="512" x="0" y="0"></rect>
        </clipPath>
    </defs>
    <g clip-path="url(#__lottie_element_22)">
        <g
            transform="matrix(0.9991665482521057,-0.04081851616501808,0.04081851616501808,0.9991665482521057,93.06100463867188,131.01756286621094)"
            opacity="1" style="display: block;">
            <g opacity="1" transform="matrix(1,0,0,1,86.16300201416016,75.25199890136719)">
                <path fill="rgb(155,208,105)" fill-opacity="1"
                    d=" M-84.69300079345703,-59.22800064086914 C-85.91300201416016,-66.89199829101562 -80.13200378417969,-73.89199829101562 -72.3740005493164,-74.14099884033203 C-45.63199996948242,-75.00299835205078 13.473999977111816,-72.59700012207031 54.090999603271484,-39.047000885009766 C69.62100219726562,-26.22100067138672 76.38899993896484,-11.37600040435791 78.85299682617188,1.9950000047683716 C85.91400146484375,40.29999923706055 57.59600067138672,74.59700012207031 18.63599967956543,74.89800262451172 C5.039999961853027,75.00299835205078 -10.817000389099121,71.16100311279297 -26.34600067138672,58.33399963378906 C-66.96399688720703,24.784000396728516 -80.48799896240234,-32.80400085449219 -84.69300079345703,-59.22800064086914z"></path>
            </g>
            <g opacity="1" transform="matrix(1,0,0,1,84.91300201416016,69.30799865722656)">
                <path fill="rgb(125,190,59)" fill-opacity="1"
                    d=" M80.10399627685547,7.939000129699707 C77.63899993896484,-5.433000087738037 70.87100219726562,-20.277000427246094 55.34199905395508,-33.104000091552734 C14.723999977111816,-66.65399932861328 -44.38100051879883,-69.05799865722656 -71.1240005493164,-68.1969985961914 C-78.88099670410156,-67.9469985961914 -84.66300201416016,-60.948001861572266 -83.44300079345703,-53.28300094604492 C-83.16799926757812,-51.54899978637695 -82.85199737548828,-49.680999755859375 -82.48999786376953,-47.69499969482422 C-53.53099822998047,-47.89500045776367 -0.12800000607967377,-43.51300048828125 37.44900131225586,-12.475000381469727 C52.97800064086914,0.35199999809265137 59.74599838256836,15.196000099182129 62.21099853515625,28.56800079345703 C64.91000366210938,43.20800018310547 62.439998626708984,57.262001037597656 56.183998107910156,69.05699920654297 C74.46900177001953,55.7400016784668 84.66300201416016,32.67499923706055 80.10399627685547,7.939000129699707z"></path>
            </g>
        </g>
        <g
            transform="matrix(0.9991665482521057,-0.04081851616501808,0.04081851616501808,0.9991665482521057,288.2108154296875,167.46200561523438)"
            opacity="1" style="display: block;">
            <g opacity="1" transform="matrix(1,0,0,1,74.54199981689453,61.10300064086914)">
                <path fill="rgb(155,208,105)" fill-opacity="1"
                    d=" M72.74800109863281,-42.92399978637695 C74.29199981689453,-49.125999450683594 70.04499816894531,-55.27799987792969 63.698001861572266,-56.03300094604492 C41.816001892089844,-58.63600158691406 -6.85099983215332,-60.85200119018555 -42.555999755859375,-36.20399856567383 C-56.20800018310547,-26.7810001373291 -62.8129997253418,-15.079999923706055 -65.78299713134766,-4.2829999923706055 C-74.29199981689453,26.645000457763672 -53.48899841308594,56.792999267578125 -21.54199981689453,59.801998138427734 C-10.394000053405762,60.85200119018555 2.888000011444092,58.82400131225586 16.538999557495117,49.400001525878906 C52.244998931884766,24.75200080871582 67.42500305175781,-21.541000366210938 72.74800109863281,-42.92399978637695z"></path>
            </g>
            <g opacity="1" transform="matrix(1,0,0,1,81.1719970703125,63.018001556396484)">
                <path fill="rgb(125,190,59)" fill-opacity="1"
                    d=" M57.06800079345703,-57.94900131225586 C54.04100036621094,-58.308998107910156 50.50199890136719,-58.6619987487793 46.555999755859375,-58.9370002746582 C40.36199951171875,-36.13100051879883 24.927000045776367,5.959000110626221 -8.52400016784668,29.049999237060547 C-22.174999237060547,38.4739990234375 -35.457000732421875,40.50299835205078 -46.60599899291992,39.45199966430664 C-54.369998931884766,38.72100067138672 -61.474998474121094,36.387001037597656 -67.66200256347656,32.827999114990234 C-59.83700180053711,46.43899917602539 -45.678001403808594,56.23699951171875 -28.172000885009766,57.88600158691406 C-17.02400016784668,58.9370002746582 -3.742000102996826,56.90800094604492 9.909000396728516,47.48400115966797 C45.6150016784668,22.836000442504883 60.79499816894531,-23.457000732421875 66.11799621582031,-44.8390007019043 C67.66200256347656,-51.04100036621094 63.415000915527344,-57.194000244140625 57.06800079345703,-57.94900131225586z"></path>
            </g>
        </g>
        <g transform="matrix(1,0,0,1,139.625,150.2519989013672)" opacity="1" style="display: block;">
            <g opacity="1" transform="matrix(1,0,0,1,84.12300109863281,120.34200286865234)">
                <path stroke-linecap="round" stroke-linejoin="round" fill-opacity="0"
                    stroke="rgb(125,190,59)" stroke-opacity="1" stroke-width="10"
                    d=" M-59.12300109863281,-95.34200286865234 C-59.12300109863281,-95.34200286865234 59.12300109863281,-21.30299949645996 48.784000396728516,95.34200286865234"></path>
            </g>
        </g>
        <g transform="matrix(1,0,0,1,242.63600158691406,189.21600341796875)" opacity="1"
            style="display: block;">
            <g opacity="1" transform="matrix(1,0,0,1,81.11699676513672,102.82499694824219)">
                <path stroke-linecap="round" stroke-linejoin="round" fill-opacity="0"
                    stroke="rgb(125,190,59)" stroke-opacity="1" stroke-width="10"
                    d=" M56.11800003051758,-77.82499694824219 C56.11800003051758,-77.82499694824219 -56.117000579833984,-41.599998474121094 -50.58000183105469,77.82499694824219"></path>
            </g>
        </g>
        <g transform="matrix(1,0,0,1,151.01202392578125,362.8459777832031)" opacity="1"
            style="display: block;">
            <g opacity="1" transform="matrix(1,0,0,1,121.5199966430664,37.262001037597656)">
                <path fill="rgb(198,134,92)" fill-opacity="1"
                    d=" M118.00800323486328,28.007999420166016 C117.9540023803711,27.945999145507812 117.9000015258789,27.885000228881836 117.84500122070312,27.823999404907227 C108.65799713134766,17.441999435424805 96.0780029296875,13.230999946594238 84.13800048828125,15.190999984741211 C82.04299926757812,11.321999549865723 79.52799987792969,7.663000106811523 76.56400299072266,4.314000129699707 C68.38999938964844,-4.922999858856201 58.1619987487793,-10.420999526977539 47.54199981689453,-12.187999725341797 C36.08399963378906,-27.371999740600586 19.042999267578125,-37.012001037597656 0,-37.012001037597656 C-19.042999267578125,-37.012001037597656 -36.08399963378906,-27.371999740600586 -47.542999267578125,-12.187999725341797 C-58.16299819946289,-10.420999526977539 -68.39099884033203,-4.922999858856201 -76.56400299072266,4.314000129699707 C-79.5270004272461,7.6620001792907715 -82.04399871826172,11.321999549865723 -84.13800048828125,15.190999984741211 C-96.0780029296875,13.230999946594238 -108.65799713134766,17.441999435424805 -117.84600067138672,27.823999404907227 C-117.9000015258789,27.885000228881836 -117.95500183105469,27.945999145507812 -118.00800323486328,28.007999420166016 C-120.3030014038086,30.631000518798828 -121.2699966430664,33.86199951171875 -121.18900299072266,37.012001037597656 C-121.18900299072266,37.012001037597656 121.19000244140625,37.012001037597656 121.19000244140625,37.012001037597656 C121.2699966430664,33.86199951171875 120.3030014038086,30.631000518798828 118.00800323486328,28.007999420166016z"></path>
            </g>
            <g opacity="1" transform="matrix(1,0,0,1,175.63800048828125,37.26100158691406)">
                <path fill="rgb(177,110,61)" fill-opacity="1"
                    d=" M63.88999938964844,28.009000778198242 C63.83599853515625,27.94700050354004 63.78099822998047,27.885000228881836 63.72600173950195,27.823999404907227 C54.53799819946289,17.441999435424805 41.95899963378906,13.232000350952148 30.018999099731445,15.192000389099121 C27.924999237060547,11.322999954223633 25.409000396728516,7.664000034332275 22.44499969482422,4.315000057220459 C14.270999908447266,-4.921000003814697 4.044000148773193,-10.418999671936035 -6.577000141143799,-12.187000274658203 C-18.03499984741211,-27.371000289916992 -35.07699966430664,-37.01100158691406 -54.119998931884766,-37.01100158691406 C-58.5890007019043,-37.01100158691406 -62.94900131225586,-36.47999954223633 -67.1520004272461,-35.47100067138672 C-54.59000015258789,-32.45500183105469 -43.426998138427734,-25.16699981689453 -34.89899826049805,-15.02299976348877 C-33.382999420166016,-13.218999862670898 -31.29599952697754,-12.003000259399414 -29.010000228881836,-11.432999610900879 C-19.704999923706055,-9.112000465393066 -10.855999946594238,-3.864000082015991 -3.61899995803833,4.315000057220459 C-2.0399999618530273,6.098999977111816 -0.5889999866485596,7.9710001945495605 0.7400000095367432,9.916000366210938 C2.7820000648498535,12.904999732971191 6.138000011444092,14.717000007629395 9.756999969482422,14.725000381469727 C19.858999252319336,14.748000144958496 29.954999923706055,19.11400032043457 37.6619987487793,27.822999954223633 C37.71699905395508,27.885000228881836 37.770999908447266,27.94700050354004 37.82500076293945,28.007999420166016 C40.119998931884766,30.631000518798828 41.08700180053711,33.86199951171875 41.00600051879883,37.01100158691406 C41.00600051879883,37.01100158691406 67.06999969482422,37.01100158691406 67.06999969482422,37.01100158691406 C67.1520004272461,33.86199951171875 66.18499755859375,30.631999969482422 63.88999938964844,28.009000778198242z"></path>
            </g>
        </g>
        <g transform="matrix(1,0,0,1,115.29600524902344,431.73699951171875)" opacity="1"
            style="display: block;">
            <g opacity="1" transform="matrix(1,0,0,1,154.05099487304688,5.382999897003174)">
                <path fill="rgb(128,79,43)" fill-opacity="1"
                    d=" M148.66799926757812,5.132999897003174 C148.66799926757812,5.132999897003174 -148.66900634765625,5.132999897003174 -148.66900634765625,5.132999897003174 C-151.50399780273438,5.132999897003174 -153.8000030517578,2.8340001106262207 -153.8000030517578,-0.0010000000474974513 C-153.8000030517578,-2.8350000381469727 -151.5030059814453,-5.132999897003174 -148.66900634765625,-5.132999897003174 C-148.66900634765625,-5.132999897003174 148.66799926757812,-5.132999897003174 148.66799926757812,-5.132999897003174 C151.5030059814453,-5.132999897003174 153.80099487304688,-2.8350000381469727 153.80099487304688,-0.0010000000474974513 C153.80099487304688,2.8340001106262207 151.5030059814453,5.132999897003174 148.66799926757812,5.132999897003174z"></path>
            </g>
        </g>
    </g>
</svg>